<svg xmlns="http://www.w3.org/2000/svg" width="49.167" height="31.012" viewBox="0 0 49.167 31.012">
    <defs>
        <style>
            .cls-1{fill:#b4cbea}.cls-2{fill:#79a1d5}.cls-3{fill:#f4f8f8}.cls-4{fill:#dbe7f6}.cls-5{fill:#4574ba}
        </style>
    </defs>
    <g id="icon-total-user" transform="translate(0 -11.816)">
        <path id="Path_488" d="M15.75 14.562h-.55a1.1 1.1 0 0 0-1.1-1.1H8.6a1.1 1.1 0 0 1-1.081-.913 2.183 2.183 0 0 0-.568 1.463v1.1a1.1 1.1 0 0 0 .55.947v3.452l.777-.777a1.1 1.1 0 0 0 .323-.778v-.084a.55.55 0 0 1 .55-.55h5.5a.55.55 0 0 1 .55.55v.066a1.1 1.1 0 0 0 .343.8l.756.716v-4.343a.552.552 0 0 0-.55-.549z" class="cls-1" data-name="Path 488" transform="translate(-1.611 -.17)"/>
        <path id="Path_489" d="M16.841 14.85h-.55a1.1 1.1 0 0 0-.81-1.056l-3.821 3.821h4.081a.55.55 0 0 1 .55.55v.066a1.1 1.1 0 0 0 .343.8l.756.716V15.4a.549.549 0 0 0-.549-.55z" class="cls-2" data-name="Path 489" transform="translate(-2.702 -.458)"/>
        <path id="Rectangle_569" d="M0 0h3.238v4.311H0z" class="cls-3" data-name="Rectangle 569" transform="translate(8.695 25.844)"/>
        <path id="Path_490" d="M14.556 30.637v-.561h-3.238v3.8z" class="cls-4" data-name="Path 490" transform="translate(-2.623 -4.232)"/>
        <path id="Path_491" d="M16.467 22.592v1.649a3.849 3.849 0 0 1-3.849 3.849h-1.1a3.849 3.849 0 0 1-3.849-3.849v-3.284l.777-.777a1.1 1.1 0 0 0 .323-.778v-.084a.55.55 0 0 1 .55-.55h5.5a.55.55 0 0 1 .55.55v.066a1.1 1.1 0 0 0 .343.8l.756.716v1.694z" class="cls-3" data-name="Path 491" transform="translate(-1.777 -1.611)"/>
        <path id="Path_492" d="M9.421 27.61a3.815 3.815 0 0 0 2.5.947h1.1a3.849 3.849 0 0 0 3.849-3.849v-3.342l-.62-.587z" class="cls-4" data-name="Path 492" transform="translate(-2.183 -2.077)"/>
        <path id="Path_493" d="M14.8 34.505H6A5.5 5.5 0 0 0 .5 40v7.7h14.293v-8.8a4.4 4.4 0 0 1 2.325-3.88 5.47 5.47 0 0 0-2.318-.515z" class="cls-1" data-name="Path 493" transform="translate(-.116 -5.258)"/>
        <path id="Path_494" d="M5.726 48.444h10.279v-8.8a4.366 4.366 0 0 1 .46-1.941z" class="cls-2" data-name="Path 494" transform="translate(-1.327 -6)"/>
        <path id="Path_495" d="M12.331 36.776l-1.063 8.141 1.649 2.2 1.65-2.2-1.067-8.141" class="cls-4" data-name="Path 495" transform="translate(-2.612 -5.785)"/>
        <path id="Path_496" d="M14.168 40.977l-2.4 2.4.242-2.508 1.9-1.9z" class="cls-4" data-name="Path 496" transform="translate(-2.727 -6.294)"/>
        <path id="Path_497" d="M12.932 48.893l1.649-2.2-.3-2.254-2.681 2.683z" class="cls-4" data-name="Path 497" transform="translate(-2.689 -7.561)"/>
        <path id="Path_498" d="M36.044 18.09a5.7 5.7 0 0 0-5.689-5.774h-.635A5.777 5.777 0 0 0 24.3 16.1l-.011.068a4.64 4.64 0 0 0-.9 2.742v.015a4.767 4.767 0 0 1 .561-.553v8.237h12.1v-5.444l-.012-1.529.012-.87v-.676z" class="cls-1" data-name="Path 498" transform="translate(-5.42 -.116)"/>
        <path id="Path_499" d="M26.085 27.816h10.584v-5.448l-.012-1.529.012-.87v-.677a5.921 5.921 0 0 0-.276-1.785z" class="cls-2" data-name="Path 499" transform="translate(-6.046 -1.319)"/>
        <path id="Path_500" d="M33.962 18.26h-.012a1.649 1.649 0 0 1-1.65-1.649 1.649 1.649 0 0 1-1.649 1.649h-3.024a4.651 4.651 0 0 0-1.364.209v5.284a2.2 2.2 0 0 0 .887 1.765l1.235.917A3.85 3.85 0 0 0 33 26.416l1.185-.9a2.2 2.2 0 0 0 .872-1.754v-4.401a1.1 1.1 0 0 0-1.095-1.101z" class="cls-3" data-name="Path 500" transform="translate(-6.087 -1.111)"/>
        <path id="Path_501" d="M28.214 26.64l.623.463a3.85 3.85 0 0 0 4.619-.02l1.185-.9a2.2 2.2 0 0 0 .872-1.754v-4.402a1.088 1.088 0 0 0-.147-.539z" class="cls-4" data-name="Path 501" transform="translate(-6.539 -1.778)"/>
        <path id="Rectangle_570" d="M0 0h3.238v4.311H0z" class="cls-3" data-name="Rectangle 570" transform="translate(22.964 25.844)"/>
        <path id="Path_502" d="M29.892 33.387l3.239-3.238v-.073h-3.239z" class="cls-4" data-name="Path 502" transform="translate(-6.928 -4.232)"/>
        <path id="Path_503" d="M34.5 34.505h-11a4.4 4.4 0 0 0-4.4 4.4v8.8h19.8V38.9a4.4 4.4 0 0 0-4.4-4.395z" class="cls-3" data-name="Path 503" transform="translate(-4.428 -5.258)"/>
        <path id="Path_504" d="M37.064 34.808L24.1 47.773h15.958v-8.8a4.4 4.4 0 0 0-2.994-4.165z" class="cls-4" data-name="Path 504" transform="translate(-5.585 -5.329)"/>
        <path id="Path_505" d="M30.827 37.027l-1.064 8.142 1.65 2.2 1.649-2.2L32 37.027" class="cls-1" data-name="Path 505" transform="translate(-6.898 -5.843)"/>
        <path id="Path_506" d="M32.6 40.866l-2.4 2.4.243-2.508 1.9-1.9z" class="cls-2" data-name="Path 506" transform="translate(-6.998 -6.268)"/>
        <path id="Path_507" d="M31.607 49.025l1.649-2.2-.294-2.255-2.683 2.683z" class="cls-2" data-name="Path 507" transform="translate(-7.018 -7.591)"/>
        <path id="Path_508" d="M49.738 14.8h-2.75a1.1 1.1 0 0 1-1.1-1.1 1.649 1.649 0 0 0-1.649 1.649v2.2a.55.55 0 0 0 .55.55h8.8a.55.55 0 0 0 .55-.55V15.9a1.1 1.1 0 0 0-1.1-1.1h-3.3z" class="cls-4" data-name="Path 508" transform="translate(-10.253 -.437)"/>
        <path id="Path_509" d="M54.41 15.134h-.95l-3.3 3.3h4.8a.55.55 0 0 0 .55-.55v-1.65a1.1 1.1 0 0 0-1.1-1.1z" class="cls-1" data-name="Path 509" transform="translate(-11.625 -.769)"/>
        <path id="Rectangle_571" d="M0 0h3.238v4.311H0z" class="cls-1" data-name="Rectangle 571" transform="translate(37.29 25.905)"/>
        <path id="Path_510" d="M49.355 28.228a4.4 4.4 0 0 1-4.4-4.4v-4.4h8.8v4.4a4.4 4.4 0 0 1-4.4 4.4z" class="cls-1" data-name="Path 510" transform="translate(-10.419 -1.765)"/>
        <path id="Path_511" d="M46.607 26.917a4.4 4.4 0 0 0 7.529-3.088v-4.4H54.1z" class="cls-2" data-name="Path 511" transform="translate(-10.802 -1.765)"/>
        <path id="Path_512" d="M51.778 30.583v-.428H48.54v3.666z" class="cls-2" data-name="Path 512" transform="translate(-11.25 -4.25)"/>
        <path id="Path_513" d="M52.985 34.505h-8.8a5.463 5.463 0 0 0-2.33.524 4.4 4.4 0 0 1 2.32 3.871v8.8h14.309V40a5.5 5.5 0 0 0-5.499-5.495z" class="cls-4" data-name="Path 513" transform="translate(-9.701 -5.258)"/>
        <path id="Rectangle_572" d="M0 0h1.166v1.166H0z" class="cls-2" data-name="Rectangle 572" transform="rotate(45 -16.586 61.908)"/>
        <path id="Path_514" d="M49.563 36.776L48.5 44.917l1.649 2.2 1.65-2.2-1.064-8.141" class="cls-1" data-name="Path 514" transform="translate(-11.24 -5.785)"/>
        <path id="Path_515" d="M51.332 41.126l-2.4 2.4.242-2.508 1.9-1.9z" class="cls-2" data-name="Path 515" transform="translate(-11.34 -6.329)"/>
        <path id="Path_516" d="M56.968 35.931l-12.1 12.1v.007h14.31v-7.7a5.485 5.485 0 0 0-2.21-4.407z" class="cls-1" data-name="Path 516" transform="translate(-10.4 -5.589)"/>
        <path id="Path_517" d="M50.246 48.893l1.65-2.2-.296-2.254-2.683 2.683z" class="cls-2" data-name="Path 517" transform="translate(-11.337 -7.561)"/>
        <path id="Rectangle_573" d="M0 0h1.166v1.166H0z" class="cls-2" data-name="Rectangle 573" transform="rotate(45 -24.02 44.629)"/>
        <path id="Path_518" d="M31.627 27.279A1.374 1.374 0 0 0 33 25.905h-2.75a1.375 1.375 0 0 0 1.377 1.374z" class="cls-1" data-name="Path 518" transform="translate(-7.011 -3.265)"/>
        <path id="Path_519" d="M31.016 34.956l-1.3 1.3-1.646-2.024 1.3-1.3z" class="cls-4" data-name="Path 519" transform="translate(-6.505 -4.894)"/>
        <path id="Path_520" d="M31.9 34.956l1.3 1.3 1.807-2.024-1.3-1.3z" class="cls-4" data-name="Path 520" transform="translate(-7.394 -4.894)"/>
        <path id="Rectangle_574" d="M0 0h1.844v2.703H0z" class="cls-1" data-name="Rectangle 574" transform="rotate(-45 38.868 6.084)"/>
        <path id="Rectangle_575" d="M0 0h1.844v2.765H0z" class="cls-1" data-name="Rectangle 575" transform="rotate(-135 12.28 13.176)"/>
        <path id="Rectangle_576" d="M0 0h1.844v2.703H0z" class="cls-1" data-name="Rectangle 576" transform="rotate(-45 53.177 -28.443)"/>
        <path id="Rectangle_577" d="M0 0h1.844v2.765H0z" class="cls-1" data-name="Rectangle 577" transform="rotate(-135 26.562 7.261)"/>
        <path id="Path_521" d="M44.612 23.611h-.538a.55.55 0 0 1-.55-.55v-1.65a.55.55 0 0 1 .55-.55h.539" class="cls-1" data-name="Path 521" transform="translate(-10.087 -2.096)"/>
        <path id="Path_522" d="M54.085 20.861h.539a.55.55 0 0 1 .55.55v1.649a.55.55 0 0 1-.55.55h-.539m-4.949-1.925a.825.825 0 0 1-.825.825h-1.1a.825.825 0 0 1-.825-.825.825.825 0 0 1 .825-.825h1.1a.826.826 0 0 1 .825.825z" class="cls-2" data-name="Path 522" transform="translate(-10.751 -2.096)"/>
        <path id="Path_523" d="M51.4 21.685a.825.825 0 0 1 .825-.825h1.1a.825.825 0 0 1 .825.825.825.825 0 0 1-.825.825h-1.1a.825.825 0 0 1-.825-.825z" class="cls-4" data-name="Path 523" transform="translate(-11.912 -2.096)"/>
        <path id="Path_524" d="M54.2 21.153l-1.425 1.425h.867a.825.825 0 0 0 .825-.825.816.816 0 0 0-.267-.6z" class="cls-1" data-name="Path 524" transform="translate(-12.231 -2.164)"/>
        <path id="Path_525" d="M46.387 21.685a.825.825 0 0 1 .825-.825h1.1a.825.825 0 0 1 .825.825.825.825 0 0 1-.825.825h-1.1a.825.825 0 0 1-.825-.825z" class="cls-4" data-name="Path 525" transform="translate(-10.751 -2.096)"/>
        <path id="Rectangle_578" d="M0 0h1.166v1.166H0z" class="cls-4" data-name="Rectangle 578" transform="rotate(45 -30.895 27.38)"/>
        <path id="Path_526" d="M7.325 23.633h-.538a.55.55 0 0 1-.55-.55v-1.65a.55.55 0 0 1 .55-.55h.266" class="cls-3" data-name="Path 526" transform="translate(-1.446 -2.101)"/>
        <path id="Path_527" d="M19.328 20.883h.331a.55.55 0 0 1 .55.55v1.649a.55.55 0 0 1-.55.55h-.539" class="cls-4" data-name="Path 527" transform="translate(-4.432 -2.101)"/>
        <path id="Path_528" d="M50.131 37.229a.387.387 0 0 1-.272-.112l-.824-.825a.384.384 0 0 1 0-.543l.824-.824a.384.384 0 0 1 .543 0l.825.824a.386.386 0 0 1 0 .544l-.825.824a.384.384 0 0 1-.271.112zm-.281-1.209l.281.282.282-.282-.282-.281zm-.8 4.387a.384.384 0 0 1-.272-.655l1.9-1.9a.384.384 0 1 1 .543.543l-1.9 1.9a.383.383 0 0 1-.268.112zm-.242 2.508a.384.384 0 0 1-.272-.655l2.4-2.4a.384.384 0 1 1 .543.543l-2.4 2.4a.38.38 0 0 1-.268.112zm-.008 2.361a.384.384 0 0 1-.272-.655l2.525-2.521a.384.384 0 0 1 .543.543l-2.522 2.522a.383.383 0 0 1-.274.111z" class="cls-5" data-name="Path 528" transform="translate(-11.222 -5.33)"/>
        <path id="Path_529" d="M49.212 43.364a.384.384 0 0 1-.307-.154l-1.649-2.2a.38.38 0 0 1-.074-.28l1.063-8.142a.38.38 0 0 1 .431-.332.385.385 0 0 1 .331.431l-1.043 7.987 1.248 1.665 1.248-1.665-1.042-7.987a.384.384 0 1 1 .762-.1l1.063 8.142a.38.38 0 0 1-.074.28l-1.649 2.2a.386.386 0 0 1-.308.155zm.027-14.864a4.789 4.789 0 0 1-4.784-4.784v-4.4a.384.384 0 0 1 .384-.384h8.8a.384.384 0 0 1 .384.384v4.4a4.789 4.789 0 0 1-4.784 4.784zm-4.016-8.8v4.016a4.015 4.015 0 1 0 8.03 0V19.7z" class="cls-5" data-name="Path 529" transform="translate(-10.303 -1.648)"/>
        <path id="Path_530" d="M50.069 25.949a.936.936 0 0 1-.934-.934.384.384 0 1 1 .768 0c0 .183.332.183.332 0a.384.384 0 1 1 .768 0 .936.936 0 0 1-.934.934zm0 1.539a2.959 2.959 0 0 1-1.9-.643.384.384 0 0 1 .492-.591 2.439 2.439 0 0 0 2.808 0 .384.384 0 0 1 .492.591 2.96 2.96 0 0 1-1.892.643z" class="cls-5" data-name="Path 530" transform="translate(-11.133 -2.97)"/>
        <circle id="Ellipse_56" cx=".275" cy=".275" r=".275" class="cls-5" data-name="Ellipse 56" transform="translate(36.735 19.313)"/>
        <circle id="Ellipse_57" cx=".275" cy=".275" r=".275" class="cls-5" data-name="Ellipse 57" transform="translate(40.584 19.313)"/>
        <path id="Path_531" d="M44.55 18.37h-8.8a.935.935 0 0 1-.933-.934v-2.2a2.036 2.036 0 0 1 2.034-2.036.384.384 0 0 1 .384.384.717.717 0 0 0 .716.716H44a1.486 1.486 0 0 1 1.484 1.484v1.649a.937.937 0 0 1-.934.937zm-8.02-4.357a1.269 1.269 0 0 0-.943 1.225v2.2a.166.166 0 0 0 .165.166h8.8a.166.166 0 0 0 .166-.166v-1.65a.717.717 0 0 0-.718-.716h-6.05a1.487 1.487 0 0 1-1.421-1.059zm-.79 8.206h-.54a.936.936 0 0 1-.934-.934v-1.649a.935.935 0 0 1 .934-.936h.539a.384.384 0 0 1 0 .768H35.2a.166.166 0 0 0-.166.166v1.649a.166.166 0 0 0 .166.166h.539a.384.384 0 1 1 0 .768zm9.348 0h-.539a.384.384 0 0 1 0-.768h.539a.166.166 0 0 0 .166-.166v-1.649a.166.166 0 0 0-.166-.166h-.539a.384.384 0 0 1 0-.768h.539a.936.936 0 0 1 .934.934v1.649a.935.935 0 0 1-.935.934zM5.626 42.85a.384.384 0 0 1-.384-.384v-7.949a.384.384 0 1 1 .768 0v7.949a.384.384 0 0 1-.384.384zm39.973 0a.384.384 0 0 1-.384-.384v-7.949a.384.384 0 1 1 .768 0v7.949a.384.384 0 0 1-.383.384zm-7.15-14.084a.384.384 0 0 1-.384-.384v-1.773a.384.384 0 1 1 .768 0v1.773a.384.384 0 0 1-.384.384zm3.3.179a.384.384 0 0 1-.384-.384V26.64a.384.384 0 1 1 .768 0v1.921a.384.384 0 0 1-.384.384z" class="cls-5" data-name="Path 531" transform="translate(-1.215 -.322)"/>
        <path id="Path_532" d="M48.252 36.311a.387.387 0 0 1-.272-.112l-1.911-1.911a.386.386 0 0 1 0-.544l1.3-1.3a.384.384 0 0 1 .543 0l1.911 1.911a.384.384 0 0 1 0 .543l-1.3 1.3a.378.378 0 0 1-.271.113zm-1.367-2.3l1.368 1.368.761-.761-1.367-1.367z" class="cls-5" data-name="Path 532" transform="translate(-10.651 -4.754)"/>
        <path id="Path_533" d="M50.843 33.538a.387.387 0 0 1-.272-.112l-1.3-1.3a.384.384 0 0 1 0-.543l1.955-1.955a.384.384 0 0 1 .272-.112.387.387 0 0 1 .272.112l1.3 1.3a.384.384 0 0 1 0 .543l-1.954 1.955a.39.39 0 0 1-.273.112zm-.761-1.689l.761.761 1.411-1.41-.761-.761zm-1.882-9.07h-1.1a1.209 1.209 0 1 1 0-2.418h1.1a1.209 1.209 0 1 1 0 2.418zm-1.1-1.65a.441.441 0 1 0 0 .881h1.1a.441.441 0 1 0 0-.881zm4.949 1.65h-1.1a1.209 1.209 0 1 1 0-2.418h1.1a1.209 1.209 0 1 1 0 2.418zm-1.1-1.65a.441.441 0 1 0 0 .881h1.1a.441.441 0 1 0 0-.881z" class="cls-5" data-name="Path 533" transform="translate(-10.635 -1.98)"/>
        <path id="Path_534" d="M43.328 21.128h-2.017a.384.384 0 0 1 0-.768h2.017a.384.384 0 1 1 0 .768zm6.884 0h-1.751a.384.384 0 0 1 0-.768h1.752a.384.384 0 0 1 0 .768zm-3.831 1a.384.384 0 0 1-.37-.283c-.094-.248-.336-.191-.388 0a.384.384 0 0 1-.742-.2.982.982 0 0 1 .936-.738.967.967 0 0 1 .9.625l.038.113a.383.383 0 0 1-.27.472.406.406 0 0 1-.104.008zM31.393 34.072a.386.386 0 0 1-.272-.112l-.825-.824a.386.386 0 0 1 0-.544l.825-.824a.384.384 0 0 1 .543 0l.825.824a.386.386 0 0 1 0 .544l-.825.824a.383.383 0 0 1-.271.112zm-.282-1.208l.282.281.282-.281-.282-.281zm-.721 3.873a.384.384 0 0 1-.272-.655l1.774-1.774a.384.384 0 0 1 .543.543l-1.774 1.774a.383.383 0 0 1-.271.112zm-.328 2.86a.384.384 0 0 1-.272-.655l2.351-2.35a.384.384 0 1 1 .543.543l-2.351 2.35a.38.38 0 0 1-.271.115zm0 2.524a.384.384 0 0 1-.272-.655l2.522-2.523a.384.384 0 0 1 .543.543l-2.522 2.523a.384.384 0 0 1-.267.111z" class="cls-5" data-name="Path 534" transform="translate(-6.878 -1.98)"/>
        <path id="Path_535" d="M31.3 47.636a.384.384 0 0 1-.307-.154l-1.649-2.2a.38.38 0 0 1-.074-.28l1.064-8.142a.384.384 0 1 1 .762.1l-1.046 7.988 1.25 1.664 1.248-1.665-1.048-7.986a.384.384 0 1 1 .762-.1L33.329 45a.38.38 0 0 1-.074.28l-1.649 2.2a.387.387 0 0 1-.306.156z" class="cls-5" data-name="Path 535" transform="translate(-6.782 -5.727)"/>
        <path id="Path_536" d="M29.6 36.528h-.02a.383.383 0 0 1-.278-.141l-1.646-2.024a.384.384 0 0 1 .027-.514l1.3-1.3a.361.361 0 0 1 .291-.112.383.383 0 0 1 .278.141L31.2 34.6a.384.384 0 0 1-.027.514l-1.3 1.3a.384.384 0 0 1-.273.114zm-1.129-2.382l1.159 1.425.757-.757-1.159-1.425z" class="cls-5" data-name="Path 536" transform="translate(-6.389 -4.778)"/>
        <path id="Path_537" d="M33.092 36.528a.388.388 0 0 1-.272-.112l-1.3-1.3a.385.385 0 0 1-.015-.528l1.807-2.025a.383.383 0 0 1 .276-.128.427.427 0 0 1 .283.112l1.3 1.3a.385.385 0 0 1 .015.528L33.377 36.4a.385.385 0 0 1-.276.128zm-.775-1.7l.76.759 1.3-1.45-.76-.76z" class="cls-5" data-name="Path 537" transform="translate(-7.278 -4.778)"/>
        <circle id="Ellipse_58" cx=".55" cy=".55" r=".55" class="cls-5" data-name="Ellipse 58" transform="translate(22.1 19.073)"/>
        <circle id="Ellipse_59" cx=".55" cy=".55" r=".55" class="cls-5" data-name="Ellipse 59" transform="translate(25.949 19.073)"/>
        <path id="Path_538" d="M27.149 20.865a.384.384 0 0 1-.272-.655 1.8 1.8 0 0 1 2.488 0 .384.384 0 0 1-.543.543 1.014 1.014 0 0 0-1.4 0 .383.383 0 0 1-.273.112zm5.793 0a.386.386 0 0 1-.272-.112 1.014 1.014 0 0 0-1.4 0 .384.384 0 0 1-.543-.543 1.8 1.8 0 0 1 2.488 0 .384.384 0 0 1-.271.655zm-8.953 23.51a.384.384 0 0 1-.384-.384v-6.849a.384.384 0 0 1 .768 0v6.849a.384.384 0 0 1-.384.384zm11.547 0a.384.384 0 0 1-.384-.384v-6.849a.384.384 0 0 1 .768 0v6.849a.383.383 0 0 1-.384.384z" class="cls-5" data-name="Path 538" transform="translate(-5.471 -1.83)"/>
        <path id="Path_539" d="M38.785 45.607h-19.8a.384.384 0 0 1-.384-.384v-8.8a4.789 4.789 0 0 1 4.784-4.784h2.485a.384.384 0 1 1 0 .768h-2.481a4.02 4.02 0 0 0-4.016 4.016v8.414H38.4v-8.413a4.02 4.02 0 0 0-4.015-4.016H32a.384.384 0 1 1 0-.768h2.387a4.789 4.789 0 0 1 4.783 4.784v8.8a.384.384 0 0 1-.385.383zm-9.857-20.873a.928.928 0 0 1-.661-.274.384.384 0 1 1 .544-.542.164.164 0 0 0 .117.048.164.164 0 0 0 .117-.048.384.384 0 0 1 .544.543.934.934 0 0 1-.661.273zm0 2.443a1.761 1.761 0 0 1-1.759-1.759.384.384 0 0 1 .384-.384H30.3a.384.384 0 0 1 .384.384 1.761 1.761 0 0 1-1.756 1.759zm-.914-1.377a.991.991 0 0 0 1.827 0zm-.775 5.516a.384.384 0 0 1-.384-.384v-2.37a.384.384 0 0 1 .384-.384.384.384 0 0 1 .384.384v2.37a.384.384 0 0 1-.384.386zm3.308-.054a.384.384 0 0 1-.384-.384v-2.255a.384.384 0 1 1 .768 0v2.257a.384.384 0 0 1-.384.384z" class="cls-5" data-name="Path 539" transform="translate(-4.312 -2.779)"/>
        <path id="Path_540" d="M29.9 27.044a4.227 4.227 0 0 1-2.525-.83l-1.237-.914a2.6 2.6 0 0 1-1.038-2.077v-4.737a4.315 4.315 0 0 0-1.533 1.156.385.385 0 0 1-.678-.248 5.055 5.055 0 0 1 5.057-5.073.384.384 0 1 1 0 .768 4.288 4.288 0 0 0-4.175 3.3 5.022 5.022 0 0 1 1.578-.817l.045-.014a5.06 5.06 0 0 1 1.454-.213h3.025a1.267 1.267 0 0 0 1.265-1.265.384.384 0 0 1 .768 0 1.267 1.267 0 0 0 1.265 1.265 1.488 1.488 0 0 1 1.495 1.484v4.405a2.6 2.6 0 0 1-1.024 2.06l-1.185.9a4.229 4.229 0 0 1-2.557.85zm-4.034-8.817v5a1.82 1.82 0 0 0 .733 1.457l1.235.917a3.486 3.486 0 0 0 4.158-.018l1.185-.9a1.827 1.827 0 0 0 .72-1.448v-4.406a.717.717 0 0 0-.716-.716 2.045 2.045 0 0 1-1.661-.847 2.032 2.032 0 0 1-1.65.847h-3.027a4.327 4.327 0 0 0-.979.114z" class="cls-5" data-name="Path 540" transform="translate(-5.304 -.581)"/>
        <path id="Path_541" d="M25 26.882h-4.4a.384.384 0 0 1-.384-.384v-8.25a.384.384 0 1 1 .768 0v7.864H25a.385.385 0 0 1 0 .769zm7.7 0h-4.4a.384.384 0 0 1 0-.768h4v-8.14a5.291 5.291 0 0 0-5.3-5.39h-.635a5.408 5.408 0 0 0-5.063 3.537.384.384 0 1 1-.722-.264 6.181 6.181 0 0 1 5.785-4.041H27a6.051 6.051 0 0 1 6.073 6.158V26.5a.383.383 0 0 1-.38.382zm-21.226-7.173a.383.383 0 0 1-.308-.154.951.951 0 0 0-1.547 0A.384.384 0 1 1 9 19.1a1.766 1.766 0 0 1 1.331-.7h.058a.481.481 0 0 1 .058 0 1.769 1.769 0 0 1 1.331.705.383.383 0 0 1-.307.613zm3.85 0a.383.383 0 0 1-.308-.154.952.952 0 0 0-1.548 0 .384.384 0 1 1-.615-.459 1.739 1.739 0 0 1 1.332-.7h.114a1.766 1.766 0 0 1 1.331.705.383.383 0 0 1-.078.537.376.376 0 0 1-.229.071zM12.375 31.9a.387.387 0 0 1-.272-.112l-.824-.825a.384.384 0 0 1 0-.543l.824-.824a.384.384 0 0 1 .543 0l.825.824a.386.386 0 0 1 0 .544l-.825.825a.386.386 0 0 1-.271.111zm-.281-1.209l.281.282.282-.282-.282-.281zm-.786 4.366a.384.384 0 0 1-.272-.655l1.81-1.81a.384.384 0 1 1 .543.543l-1.81 1.81a.38.38 0 0 1-.271.111zm-.325 2.493a.384.384 0 0 1-.272-.655l2.425-2.424a.384.384 0 0 1 .543.543l-2.425 2.424a.385.385 0 0 1-.271.111zm.065 2.4a.384.384 0 0 1-.272-.655l2.524-2.526a.384.384 0 0 1 .543.543l-2.522 2.522a.385.385 0 0 1-.273.113z" class="cls-5" data-name="Path 541" transform="translate(-2.069)"/>
        <path id="Path_542" d="M12.8 44.691a.384.384 0 0 1-.307-.154l-1.649-2.2a.38.38 0 0 1-.074-.28l1.063-8.142a.38.38 0 0 1 .431-.332.385.385 0 0 1 .331.431L11.549 42l1.251 1.667L14.045 42 13 34.016a.384.384 0 1 1 .762-.1l1.063 8.142a.38.38 0 0 1-.074.28l-1.649 2.2a.386.386 0 0 1-.302.153zm-.015-18.72a.936.936 0 0 1-.934-.934.384.384 0 0 1 .768 0c0 .183.332.183.332 0a.384.384 0 1 1 .768 0 .936.936 0 0 1-.937.934zm0 1.539a2.957 2.957 0 0 1-1.9-.643.384.384 0 0 1 .492-.591 2.441 2.441 0 0 0 2.808 0 .384.384 0 0 1 .492.591 2.962 2.962 0 0 1-1.895.643z" class="cls-5" data-name="Path 542" transform="translate(-2.491 -2.975)"/>
        <circle id="Ellipse_60" cx=".55" cy=".55" r=".55" class="cls-5" data-name="Ellipse 60" transform="translate(7.815 19.605)"/>
        <circle id="Ellipse_61" cx=".55" cy=".55" r=".55" class="cls-5" data-name="Ellipse 61" transform="translate(11.664 19.605)"/>
        <path id="Path_543" d="M7.209 23.9h-.538a.936.936 0 0 1-.934-.934v-1.649a.935.935 0 0 1 .934-.934h.266a.384.384 0 0 1 0 .768h-.266a.166.166 0 0 0-.166.166v1.649a.166.166 0 0 0 .166.166h.539a.384.384 0 1 1 0 .768zm9.349 0h-.539a.384.384 0 1 1 0-.768h.539a.166.166 0 0 0 .166-.166v-1.649a.166.166 0 0 0-.166-.166h-.331a.384.384 0 1 1 0-.768h.331a.936.936 0 0 1 .934.934v1.649a.936.936 0 0 1-.934.934zm-6.586 6.61a.384.384 0 0 1-.384-.384v-1.82a.384.384 0 0 1 .384-.384.384.384 0 0 1 .384.384v1.82a.384.384 0 0 1-.384.385zm3.291 0a.384.384 0 0 1-.384-.384v-1.764a.384.384 0 0 1 .384-.384.384.384 0 0 1 .384.384v1.765a.384.384 0 0 1-.384.384z" class="cls-5" data-name="Path 543" transform="translate(-1.33 -1.986)"/>
        <path id="Path_544" d="M11.02 36.311a.387.387 0 0 1-.272-.112l-1.911-1.911a.386.386 0 0 1 0-.544l1.3-1.3a.384.384 0 0 1 .543 0l1.911 1.911a.384.384 0 0 1 0 .543l-1.3 1.3a.378.378 0 0 1-.271.113zm-1.367-2.3l1.368 1.368.761-.761-1.367-1.367z" class="cls-5" data-name="Path 544" transform="translate(-2.022 -4.754)"/>
        <path id="Path_545" d="M13.308 33.053a.387.387 0 0 1-.272-.112l-1.3-1.3a.384.384 0 0 1 0-.543l1.954-1.955a.4.4 0 0 1 .543 0l1.3 1.3a.384.384 0 0 1 0 .543l-1.955 1.955a.381.381 0 0 1-.27.112zm-.761-1.689l.761.761 1.412-1.412-.761-.761zm-.046-3H11.4a4.238 4.238 0 0 1-4.233-4.234v-3.29a.387.387 0 0 1 .112-.272l.777-.777a.718.718 0 0 0 .21-.505V19.2a.935.935 0 0 1 .934-.934h5.5a.936.936 0 0 1 .934.934.766.766 0 0 0 .223.585l.757.717a.384.384 0 0 1 .12.279v3.343A4.238 4.238 0 0 1 12.5 28.36zM7.936 21v3.127a3.469 3.469 0 0 0 3.464 3.465h1.1a3.469 3.469 0 0 0 3.465-3.466v-3.178l-.636-.6a1.488 1.488 0 0 1-.463-1.077c0-.157-.075-.232-.166-.232H9.2a.166.166 0 0 0-.166.166v.083a1.474 1.474 0 0 1-.434 1.047z" class="cls-5" data-name="Path 545" transform="translate(-1.661 -1.496)"/>
        <path id="Path_546" d="M7.386 19.783a.393.393 0 0 1-.147-.029.383.383 0 0 1-.23-.283A.41.41 0 0 1 7 19.4v-3.257A1.485 1.485 0 0 1 6.451 15v-1.1a2.574 2.574 0 0 1 .667-1.72.384.384 0 0 1 .665.192.712.712 0 0 0 .7.595h5.5a1.486 1.486 0 0 1 1.434 1.1h.217a.936.936 0 0 1 .934.934v4.345a.384.384 0 0 1-.648.279l-.756-.716a1.488 1.488 0 0 1-.463-1.077c0-.157-.075-.232-.166-.232h-5.5a.166.166 0 0 0-.166.166v.083a1.474 1.474 0 0 1-.435 1.049l-.777.777a.387.387 0 0 1-.271.108zm-.028-6.572a1.783 1.783 0 0 0-.139.686V15a.711.711 0 0 0 .359.616.384.384 0 0 1 .191.332v2.53l.122-.122a.727.727 0 0 0 .21-.508v-.083a.935.935 0 0 1 .934-.934h5.5a.936.936 0 0 1 .934.934.766.766 0 0 0 .223.585l.108.1V15a.166.166 0 0 0-.166-.166h-.55a.384.384 0 0 1-.384-.384.717.717 0 0 0-.716-.715h-5.5a1.483 1.483 0 0 1-1.126-.524z" class="cls-5" data-name="Path 546" transform="translate(-1.495 -.054)"/>
        <path id="Path_547" d="M6.99 17.252h-.55a1.486 1.486 0 0 1-1.484-1.484.384.384 0 1 1 .768 0 .717.717 0 0 0 .716.716h.55a.384.384 0 1 1 0 .768zm41.793 26.4h-14.31a.384.384 0 0 1-.384-.384v-8.8a4.013 4.013 0 0 0-2.115-3.537.383.383 0 0 1 .019-.685 5.827 5.827 0 0 1 2.494-.56h1.042a.384.384 0 1 1 0 .768h-1.043a5.029 5.029 0 0 0-1.493.226 4.778 4.778 0 0 1 1.865 3.79v8.414H48.4v-7.311a5.121 5.121 0 0 0-5.115-5.115h-1.1a.384.384 0 1 1 0-.768h1.1a5.89 5.89 0 0 1 5.883 5.883v7.7a.384.384 0 0 1-.385.382zm-34.106 0H.384A.384.384 0 0 1 0 43.271v-7.7a5.889 5.889 0 0 1 5.883-5.883h1.043a.384.384 0 1 1 0 .768H5.883a5.121 5.121 0 0 0-5.115 5.117v7.314h13.525v-8.415a4.777 4.777 0 0 1 1.87-3.794 5.034 5.034 0 0 0-1.482-.222h-1.1a.384.384 0 1 1 0-.768h1.1a5.819 5.819 0 0 1 2.484.556.384.384 0 0 1 .018.686 4.012 4.012 0 0 0-2.123 3.541v8.8a.383.383 0 0 1-.383.384z" class="cls-5" data-name="Path 547" transform="translate(0 -.827)"/>
    </g>
</svg>
