<svg xmlns="http://www.w3.org/2000/svg" id="Office_Team" width="30.36" height="18.288" data-name="Office Team" viewBox="0 0 30.36 18.288">
    <defs>
        <style>
            .cls-1{fill:#ff6768}
        </style>
    </defs>
    <path id="Path_467" d="M2.909 25.267a.474.474 0 0 0 .474-.474V23.73a2.117 2.117 0 0 0-.555-1.43l-.343-.376a.474.474 0 1 0-.7.639l.343.376a1.176 1.176 0 0 1 .307.791v1.063a.473.473 0 0 0 .473.474z" class="cls-1" data-name="Path 467" transform="translate(-.085 -6.979)"/>
    <path id="Path_468" d="M.474 24.469a.474.474 0 0 0 .474-.474V21.04a1.428 1.428 0 0 1 .924-1.332l.947-.356a3.782 3.782 0 0 0 5.745 0l.812.3a2.685 2.685 0 0 0-.837 1.948v2.393a.474.474 0 1 0 .949 0V21.6a1.753 1.753 0 0 1 .83-1.5l2.109-1.315a3.747 3.747 0 0 0 5.5 0l2.11 1.314a1.757 1.757 0 0 1 .832 1.5v2.393a.474.474 0 0 0 .949 0V21.6a2.681 2.681 0 0 0-.839-1.944l.812-.3a3.782 3.782 0 0 0 5.745 0l.948.356a1.426 1.426 0 0 1 .924 1.331v2.954a.474.474 0 1 0 .949 0V21.04a2.382 2.382 0 0 0-1.539-2.221l-2.256-.846V16.88a2.83 2.83 0 0 0 .948-2.105V13.9a.456.456 0 0 0 .108-.2l.442-2.051a1.621 1.621 0 0 0-1.328-1.89l-2.7-.451a1.594 1.594 0 0 0-1.812 1.2 1.4 1.4 0 0 0-.938 1.655l.428 1.563a.462.462 0 0 0 .112.185v.868a2.83 2.83 0 0 0 .95 2.107v1.091l-2.254.846a2.3 2.3 0 0 0-.388.177c-.009.006-.015.015-.025.022l-.49-.3a1.589 1.589 0 0 0 .893-1.691 27.427 27.427 0 0 1-.345-4.329V11.13a4.949 4.949 0 0 0-9.9 0v1.57a27.481 27.481 0 0 1-.345 4.329 1.573 1.573 0 0 0 .856 1.67l-.524.326c-.009-.007-.015-.017-.026-.024a2.316 2.316 0 0 0-.381-.184l-2.253-.844V16.88a2.83 2.83 0 0 0 .948-2.105V13.9a.456.456 0 0 0 .108-.2l.442-2.051A1.621 1.621 0 0 0 7.76 9.755l-2.7-.45a1.6 1.6 0 0 0-1.3.357 1.577 1.577 0 0 0-.517.842 1.4 1.4 0 0 0-.938 1.655l.428 1.563a.462.462 0 0 0 .112.185v.868a2.83 2.83 0 0 0 .95 2.107v1.091l-2.255.846A2.384 2.384 0 0 0 0 21.04v2.954a.474.474 0 0 0 .474.474zm21.819-12.914a.452.452 0 0 1 .353-.169.5.5 0 0 0 .474-.5.646.646 0 0 1 .755-.64l2.7.451a.673.673 0 0 1 .553.768l-.23 1.065-.154-.191a.474.474 0 0 0-.369-.177H22.94a.474.474 0 0 0-.37.177l-.193.24-.176-.641a.455.455 0 0 1 .092-.379zm.476 2.049l.4-.5h2.986l.411.509v1.159a1.891 1.891 0 0 1-1.3 1.791l-.02.007a1.881 1.881 0 0 1-1.172 0 1.883 1.883 0 0 1-.544-.287h-.009a1.889 1.889 0 0 1-.754-1.5V13.6zm.642 5.142a.474.474 0 0 0 .307-.444v-.847c.054.02.111.028.165.044.089.026.176.054.268.071a2.869 2.869 0 0 0 .382.039c.045 0 .086.013.132.013s.078-.01.119-.012a2.821 2.821 0 0 0 .4-.041c.081-.015.157-.04.236-.062s.132-.028.2-.051v.844a.474.474 0 0 0 .307.444l.646.242a2.827 2.827 0 0 1-3.805 0l.646-.242zm-8.231.3a2.889 2.889 0 0 1-1.935-.765l.507-.316a.465.465 0 0 0 .214-.4h.009v-1.021a3.353 3.353 0 0 0 2.407 0v1.023h.009a.464.464 0 0 0 .215.4l.509.317a2.9 2.9 0 0 1-1.935.763zm-2.629-5.852v-.6a1.958 1.958 0 0 1 1.112-1.747 7.241 7.241 0 0 0 3.676 1.02l.225.007a1.666 1.666 0 0 1 .23.023v1.3a2.622 2.622 0 1 1-5.244 0zm7.021 3.987a.642.642 0 0 1-.637.746h-.6l-1.004-.627v-1.28a3.554 3.554 0 0 0 1.413-2.826v-.812a1.626 1.626 0 0 1 .456 1.127.47.47 0 0 0 .055.212 28.264 28.264 0 0 0 .317 3.461zM11.214 12.7v-1.57a4 4 0 1 1 8 0v.407a2.534 2.534 0 0 0-1.635-.609l-.225-.007a6.34 6.34 0 0 1-3.747-1.213.472.472 0 0 0-.662.105.463.463 0 0 0-.071.389 2.918 2.918 0 0 0-1.257 2.2.465.465 0 0 0-.015.074v.724a3.558 3.558 0 0 0 1.423 2.835V17.3l-1.009.628h-.525a.643.643 0 0 1-.636-.747 28.252 28.252 0 0 0 .359-4.481zm-7.9-1.147a.452.452 0 0 1 .353-.169.5.5 0 0 0 .474-.5.646.646 0 0 1 .755-.64l2.7.451a.673.673 0 0 1 .553.768l-.23 1.065-.154-.191a.472.472 0 0 0-.369-.177H3.965a.474.474 0 0 0-.37.177l-.193.24-.176-.641a.455.455 0 0 1 .092-.381zm.48 2.047l.4-.5h2.984l.411.509v1.159a1.89 1.89 0 0 1-.756 1.507 1.867 1.867 0 0 1-.538.284l-.017.006a1.884 1.884 0 0 1-1.164 0l-.017-.006a1.864 1.864 0 0 1-.538-.283 1.888 1.888 0 0 1-.759-1.5V13.6zm.642 5.142a.474.474 0 0 0 .307-.444v-.846c.058.021.12.03.178.047.084.024.167.05.253.066a2.76 2.76 0 0 0 .385.039c.044 0 .085.013.13.013s.08-.01.12-.012a2.924 2.924 0 0 0 .4-.04c.085-.016.167-.043.25-.066.061-.017.123-.027.183-.048v.849a.474.474 0 0 0 .307.444l.646.242a2.825 2.825 0 0 1-3.805 0l.647-.243z" class="cls-1" data-name="Path 468" transform="translate(0 -6.181)"/>
    <path id="Path_469" d="M12.117 25.268a.474.474 0 0 0 .474-.474v-1.339a2.277 2.277 0 0 0-.6-1.539.474.474 0 0 0-.7.639 1.331 1.331 0 0 1 .348.9v1.339a.474.474 0 0 0 .478.474zm7.746-.474v-1.339a1.323 1.323 0 0 1 .349-.9.475.475 0 1 0-.7-.64 2.277 2.277 0 0 0-.6 1.539v1.339a.474.474 0 0 0 .949 0zm8.72 0v-1.063a1.171 1.171 0 0 1 .307-.791l.343-.376a.474.474 0 0 0-.7-.639l-.343.376a2.119 2.119 0 0 0-.555 1.431v1.063a.474.474 0 0 0 .948 0z" class="cls-1" data-name="Path 469" transform="translate(-.572 -6.979)"/>
</svg>
