<svg xmlns="http://www.w3.org/2000/svg" width="24.829" height="19.758" viewBox="0 0 24.829 19.758">
    <defs>
        <style>
            .cls-1{fill:#3b86ff}
        </style>
    </defs>
    <path id="office_building" d="M30.526 72.985H15.93a.3.3 0 0 0-.3.3v7.8h-1.479v-2.809a.3.3 0 0 0-.3-.3H6.3a.3.3 0 0 0-.3.3v14.165a.3.3 0 0 0 .3.3h24.226a.3.3 0 0 0 .3-.3V73.288a.3.3 0 0 0-.3-.303zm-7 14.394v-3.2a.3.3 0 0 0-.606 0v3.2h-3.038v-4.232h6.693v4.232zm3.043.606v4.153h-3.038v-4.153zm-10.341-.606v-4.232h3.043v4.232zm0-5.988v-3.042h6.692v4.193h-3.038v-3.3a.3.3 0 0 0-.606 0v3.3h-3.043zm10.645-2.449a.3.3 0 0 0-.3.3v3.3h-3.041v-4.193h6.692v4.193H27.18v-3.3a.3.3 0 0 0-.302-.3zm-3.346-1.2v-4.151h3.043v4.153zm-.606 0h-3.039v-4.151h3.043zm4.254 5.4h3.043v4.232H27.18zm3.043-5.4H27.18v-4.151h3.043zm-10.942-4.151v4.153h-3.043v-4.153zm-12.67 4.988h6.94v13.559h-1.072V81.391a.3.3 0 0 0-.3-.3H10.8a.3.3 0 0 0-.3.3v10.747h-.843V81.391a.3.3 0 0 0-.3-.3H7.98a.3.3 0 0 0-.3.3v10.747H6.606zm1.677 13.559V81.694h.768v10.444zm2.817 0V81.694h.768v10.444zm3.051-10.444h1.476v10.444h-1.476zm2.082 6.291h6.692v4.153h-3.043v-3.147a.3.3 0 0 0-.606 0v3.147h-3.043zm10.947 4.153v-4.153h3.043v4.153z" class="cls-1" data-name="office building" transform="translate(-6 -72.985)"/>
</svg>
