<svg xmlns="http://www.w3.org/2000/svg" id="icon_customer" width="22" height="22" viewBox="0 0 22 22">
    <defs>
        <style>
            .cls-1,.cls-2{fill:#fcfcfc}.cls-1{opacity:0}
        </style>
    </defs>
    <g id="people">
        <path id="Rectangle_580" d="M0 0h22v22H0z" class="cls-1" data-name="Rectangle 580"/>
        <path id="Path_550" d="M8.556 10.492A3.746 3.746 0 1 0 4.81 6.746a3.746 3.746 0 0 0 3.746 3.746zm0-5.619a1.873 1.873 0 1 1-1.873 1.873 1.873 1.873 0 0 1 1.873-1.873zm7.492 7.492a2.81 2.81 0 1 0-2.81-2.81 2.81 2.81 0 0 0 2.81 2.811zm0-3.746a.937.937 0 1 1-.937.937.937.937 0 0 1 .937-.937zm0 4.683a4.683 4.683 0 0 0-2.866.983A6.556 6.556 0 0 0 2 18.922a.937.937 0 1 0 1.873 0 4.683 4.683 0 0 1 9.366 0 .937.937 0 0 0 1.873 0 6.462 6.462 0 0 0-.805-3.137 2.81 2.81 0 0 1 4.552 2.2.937.937 0 1 0 1.873 0 4.683 4.683 0 0 0-4.684-4.685z" class="cls-2" data-name="Path 550" transform="translate(-.127 -.19)"/>
    </g>
</svg>
