<svg xmlns="http://www.w3.org/2000/svg" width="37.298" height="27.009" viewBox="0 0 37.298 27.009">
    <defs>
        <style>
            .cls-1,.cls-3{fill:#2b4255}.cls-2{fill:#ffb961}.cls-3{fill-rule:evenodd}
        </style>
    </defs>
    <g id="online-site-ecommerce-product-bill-paid-status-2-30007">
        <path id="Path_448" d="M4.838 1028.361a.643.643 0 1 0 0 1.286h26.213a.643.643 0 1 0 0-1.286zm31.892 5.4a.643.643 0 0 0-.633.651v13.728a.824.824 0 0 1-.849.829H4.838a.643.643 0 1 0 0 1.286h30.41a2.135 2.135 0 0 0 2.135-2.115v-13.728a.643.643 0 0 0-.653-.651z" class="cls-1" data-name="Path 448" transform="translate(-.086 -1025.789)"/>
        <path id="Path_449" d="M1 1026.361v27.009h5.145v-27.009zm1.286 1.286h2.572v24.436H2.286z" class="cls-2" data-name="Path 449" transform="translate(-1 -1026.361)"/>
        <path id="Path_450" d="M7.435 1039.941v.023a.431.431 0 0 0-.064 0h-.023a.436.436 0 0 0-.342.5v1.611a.437.437 0 0 0 0 .144v1.6a.436.436 0 0 0 .029.246.394.394 0 0 0 .019.037.436.436 0 0 0 .486.22h.771a.427.427 0 0 0 .1-.017 1.311 1.311 0 0 0 1.205-1.3 1.284 1.284 0 0 1 0-1.745 1.311 1.311 0 0 0-1.2-1.3.455.455 0 0 0-.1-.017h-.881zm14.838 0a1.308 1.308 0 0 0-1.295 1.193.432.432 0 0 0-.013.108v2.612a.436.436 0 1 0 .873 0v-1.384a1.294 1.294 0 0 0 .435.083 1.309 1.309 0 1 0 0-2.618zm7.846 0a.436.436 0 0 0-.428.441v3.459a.436.436 0 0 0 .23.422.437.437 0 0 0 .093.032h.029a.45.45 0 0 0 .086.017H31a.435.435 0 0 0 .128-.017 2.166 2.166 0 0 0 .01-4.326.441.441 0 0 0-.131-.017h-.786a.447.447 0 0 0-.105-.017zm-4.828 0a.436.436 0 0 0-.371.281l-1.308 3.491a.437.437 0 1 0 .815.307l.221-.585h1.362l.217.585a.437.437 0 0 0 .818-.307l-1.308-3.491a.436.436 0 0 0-.406-.281h-.042zm3.082 0a.436.436 0 0 0-.428.441v3.479a.436.436 0 1 0 .873 0v-3.479a.436.436 0 0 0-.444-.441zm-15.71.026a.437.437 0 0 0-.428.441V1043.942a.436.436 0 0 0 .441.387h1.733a.436.436 0 0 0 0-.873h-1.3v-3.047a.436.436 0 0 0-.444-.444zm-1.742 0a.436.436 0 0 0-.432.441v3.482a.436.436 0 0 0 .873 0v-3.482a.436.436 0 0 0-.441-.441zm5.23 0a.437.437 0 0 0-.428.441v3.446a.437.437 0 0 0 0 .077c0 .014 0 .027.007.041s.006.025.01.038v.016c0 .011.008.022.013.032l.019.041v.017l.019.03a.457.457 0 0 0 .048.057l.01.017.032.023.01.017.029.023a.419.419 0 0 0 .077.04.436.436 0 0 0 .128.026H17.9a.436.436 0 0 0 0-.873h-1.3v-3.047a.437.437 0 0 0-.444-.444v-.017zm6.122.844a.436.436 0 1 1-.435.435.43.43 0 0 1 .435-.435zm8.29 0h.38a1.309 1.309 0 1 1 0 2.615h-.38v-2.615zm-22.683.017h.428a.436.436 0 0 1 0 .873H7.88v-.873zm17.45.786l.352.943h-.7l.352-.943zm-17.45.966h.46a.434.434 0 0 1-.032.866H7.88v-.866z" class="cls-3" data-name="Path 450" transform="translate(.717 -1022.477)"/>
        <path id="Path_451" d="M25.643 1028.367a.643.643 0 0 0-.643.643v3.544a2.4 2.4 0 0 0 2.359 2.417h3.429a.643.643 0 0 0 .462-1.09l-5.145-5.318a.643.643 0 0 0-.462-.196zm.643 2.233l2.984 3.085h-1.911a1.087 1.087 0 0 1-1.073-1.13z" class="cls-1" data-name="Path 451" transform="translate(5.867 -1025.787)"/>
        <path id="Path_452" d="M6 1035.381h5.145v1.286H6zm19.292-.064h9v1.415h-9zM6 1037.953h7.717v1.286H6zm16.72-.007h11.575v1.3H22.72z" class="cls-1" data-name="Path 452" transform="translate(.431 -1023.799)"/>
        <path id="Path_453" d="M23.218 1030.1a1.89 1.89 0 0 0-1.274.563l-.751.749.909.909.756-.754.005-.013a.6.6 0 0 1 .407-.171.544.544 0 0 1 .548.349.531.531 0 0 1-.131.638l-.008.013-6.921 6.9a.571.571 0 0 1-.819 0l-3.461-3.452a.5.5 0 0 1-.191-.424.633.633 0 0 1 .191-.392.64.64 0 0 1 .4-.191.488.488 0 0 1 .427.191l2.595 2.59a.643.643 0 0 0 .909 0l.756-.753.756-.756.759-.756.756-.754-.909-.912-.756.756-.756.756-.756.754-.3.3-2.14-2.135a1.868 1.868 0 0 0-1.412-.565 1.95 1.95 0 0 0-1.8 1.791 1.869 1.869 0 0 0 .57 1.412l3.459 3.452a1.878 1.878 0 0 0 2.635 0l6.913-6.9a1.863 1.863 0 0 0-1.354-3.2h-.01zm-2.4 1.688l-.377.377-.379.379.909.91.377-.377.379-.377-.909-.912z" class="cls-3" data-name="Path 453" transform="translate(1.861 -1025.292)"/>
    </g>
</svg>
