<svg xmlns="http://www.w3.org/2000/svg" width="55.425" height="40.135" viewBox="0 0 55.425 40.135">
    <defs>
        <style>
            .cls-1,.cls-3{fill:#2b4255}.cls-2{fill:#ffb961}.cls-3{fill-rule:evenodd}
        </style>
    </defs>
    <g id="online-site-ecommerce-product-bill-paid-status-2-30007" transform="translate(-1 -1026.361)">
        <path id="Path_448" d="M5.151 1028.361a.956.956 0 1 0 0 1.911H44.1a.956.956 0 1 0 0-1.911zm47.392 8.026a.955.955 0 0 0-.941.967v20.4a1.225 1.225 0 0 1-1.262 1.232H5.151a.956.956 0 1 0 0 1.911H50.34a3.173 3.173 0 0 0 3.173-3.143v-20.4a.955.955 0 0 0-.971-.967z" class="cls-1" data-name="Path 448" transform="translate(2.912 1.822)"/>
        <path id="Path_449" d="M1 1026.361v40.139h7.645v-40.135zm1.911 1.911h3.823v36.313H2.911z" class="cls-2" data-name="Path 449"/>
        <path id="Path_450" d="M7.647 1039.945v.034a.618.618 0 0 0-.1 0h-.029a.648.648 0 0 0-.508.736v2.395a.649.649 0 0 0 0 .214v2.37a.648.648 0 0 0 .043.366.6.6 0 0 0 .028.055.648.648 0 0 0 .722.328h1.15a.635.635 0 0 0 .143-.025 1.948 1.948 0 0 0 1.791-1.929 1.909 1.909 0 0 1 0-2.594 1.949 1.949 0 0 0-1.786-1.929.663.663 0 0 0-.147-.025H7.646zm22.049 0a1.943 1.943 0 0 0-1.924 1.772.642.642 0 0 0-.019.16v3.882a.648.648 0 1 0 1.3 0v-2.059a1.919 1.919 0 0 0 .646.124 1.945 1.945 0 1 0 0-3.891zm11.659 0a.648.648 0 0 0-.637.655v5.141a.648.648 0 0 0 .342.627.654.654 0 0 0 .138.048h.043a.654.654 0 0 0 .128.025h1.3a.645.645 0 0 0 .19-.025 3.218 3.218 0 0 0 .014-6.428.653.653 0 0 0-.195-.025h-1.167a.661.661 0 0 0-.157-.025zm-7.174 0a.648.648 0 0 0-.551.418l-1.943 5.188a.649.649 0 1 0 1.211.456l.328-.869h2.024l.323.869a.649.649 0 0 0 1.216-.456l-1.943-5.188a.648.648 0 0 0-.6-.418.522.522 0 0 0-.062 0zm4.58 0a.648.648 0 0 0-.637.655v5.169a.648.648 0 1 0 1.3 0v-5.169a.648.648 0 0 0-.66-.655zm-23.346.038a.648.648 0 0 0-.637.656V1045.892a.648.648 0 0 0 .656.575h2.575a.649.649 0 0 0 0-1.3h-1.934v-4.528a.648.648 0 0 0-.66-.66zm-2.589 0a.648.648 0 0 0-.641.656v5.174a.648.648 0 1 0 1.3 0v-5.174a.648.648 0 0 0-.656-.656zm7.772 0a.648.648 0 0 0-.637.656v5.121a.65.65 0 0 0 0 .115c0 .021.006.041.01.061s.009.038.015.056v.025a.956.956 0 0 0 .019.048.662.662 0 0 0 .028.061v.025c.009.015.018.03.029.044a.666.666 0 0 0 .071.084l.014.025a.509.509 0 0 0 .047.034l.015.025a.713.713 0 0 0 .043.034.625.625 0 0 0 .114.06.644.644 0 0 0 .19.038h2.622a.649.649 0 0 0 0-1.3H21.26v-4.527a.649.649 0 0 0-.66-.66v-.025zm9.1 1.254a.648.648 0 1 1-.646.646.639.639 0 0 1 .648-.646zm12.319 0h.565a1.945 1.945 0 1 1 0 3.886h-.565v-3.886zm-33.707.025h.637a.649.649 0 0 1 0 1.3h-.64v-1.3zm25.93 1.169l.523 1.4h-1.048l.523-1.4zm-25.93 1.435h.684a.644.644 0 0 1-.048 1.287h-.639v-1.287z" class="cls-3" data-name="Path 450" transform="translate(5.467 12.368)"/>
        <path id="Path_451" d="M25.956 1028.367a.956.956 0 0 0-.956.956v5.267a3.562 3.562 0 0 0 3.505 3.591h5.1a.956.956 0 0 0 .687-1.62l-7.645-7.9a.956.956 0 0 0-.691-.294zm.956 3.319l4.435 4.584h-2.842a1.616 1.616 0 0 1-1.594-1.68z" class="cls-1" data-name="Path 451" transform="translate(21.869 1.828)"/>
        <path id="Path_452" d="M6 1035.412h7.645v1.911H6zm28.668-.1h13.378v2.1H34.668zM6 1039.235h11.467v1.911H6zm24.846-.01h17.2v1.931h-17.2z" class="cls-1" data-name="Path 452" transform="translate(4.556 8.16)"/>
        <path id="Path_453" d="M29.157 1030.1a2.809 2.809 0 0 0-1.893.836l-1.116 1.112 1.352 1.352 1.124-1.12.007-.019a.9.9 0 0 1 .6-.254.809.809 0 0 1 .814.519.789.789 0 0 1-.194.948l-.011.02-10.284 10.254a.849.849 0 0 1-1.217 0l-5.144-5.129a.744.744 0 0 1-.284-.631.94.94 0 0 1 .284-.582.951.951 0 0 1 .59-.284.725.725 0 0 1 .635.284l3.856 3.848a.956.956 0 0 0 1.351 0l1.124-1.12 1.124-1.124 1.125-1.125 1.124-1.12-1.351-1.355-1.124 1.123-1.124 1.124-1.124 1.12-.452.448-3.18-3.173a2.777 2.777 0 0 0-2.1-.84 2.9 2.9 0 0 0-2.669 2.662 2.778 2.778 0 0 0 .847 2.1l5.14 5.129a2.79 2.79 0 0 0 3.916 0l10.273-10.247a2.768 2.768 0 0 0-2.012-4.755h-.015zm-3.572 2.508l-.56.56-.564.564 1.351 1.352.56-.56.564-.56-1.351-1.355z" class="cls-3" data-name="Path 453" transform="translate(9.112 3.404)"/>
    </g>
</svg>
