<svg xmlns="http://www.w3.org/2000/svg" width="46.623" height="46" viewBox="0 0 46.623 46">
    <defs>
        <style>
            .cls-1,.cls-3{fill:#f05542}.cls-1{fill-rule:evenodd}.cls-2{fill:#2b4255}
        </style>
    </defs>
    <g id="customer-survey-experience-questionarie-form-satisfaction-analytics-19-29979" transform="translate(-2.006 -1021.361)">
        <path id="Path_424" d="M31.843 1030.08l-16.214 16.214 1.084 1.084 16.214-16.214z" class="cls-1" data-name="Path 424" transform="translate(10.965 4.65)"/>
        <path id="Path_425" d="M4.306 4a2.344 2.344 0 0 0-2.3 2.363V43.04a2.341 2.341 0 0 0 2.3 2.36H33.43a2.341 2.341 0 0 0 2.3-2.36V24.8l-1.53 1.532V43.04a.78.78 0 0 1-.767.827H4.306a.78.78 0 0 1-.767-.827V6.363a.783.783 0 0 1 .767-.83h7.658a.767.767 0 1 0 0-1.533zm21.38 0a.768.768 0 1 0 .078 1.533h7.666a.783.783 0 0 1 .767.83v4.831L35.73 9.66v-3.3A2.344 2.344 0 0 0 33.43 4h-7.667a.767.767 0 0 0-.078 0zm10.044 7.829l-1.53 1.533v.27a.767.767 0 1 0 1.533 0zm-.779 10.083a.767.767 0 0 0-.755.779v1.47l1.53-1.53a.767.767 0 0 0-.776-.719z" class="cls-2" data-name="Path 425" transform="translate(0 1021.962)"/>
        <path id="Path_426" d="M6.524 6a2.526 2.526 0 0 0-2.518 2.51V33.6h1.533V8.51a.962.962 0 0 1 .985-.976H10.9V6zM24.7 6v1.533h4.381a.962.962 0 0 1 .985.976v4.684L31.6 11.66V8.51A2.526 2.526 0 0 0 29.078 6zm6.9 7.828l-1.533 1.533v.4H31.6zm-1.537 10.431v1.9l1.537-1.532v-.368zM31.6 26.8l-1.533 1.533v5.316l-4.5 4.561H6.524a.96.96 0 0 1-.985-.973v-2.1H4.006v2.1a2.523 2.523 0 0 0 2.519 2.507H25.88a.767.767 0 0 0 .545-.228l4.95-5.013a.767.767 0 0 0 .222-.539z" class="cls-2" data-name="Path 426" transform="translate(1.067 1023.029)"/>
        <path id="Path_427" d="M20.3 1044.109a2.276 2.276 0 0 0-2.024 1.18 2.608 2.608 0 0 0-.276 1.1v3.081a.767.767 0 0 0 1.309.542l4.6-4.6a.767.767 0 0 0-.542-1.308zm0 1.533h1.216l-1.983 1.979v-1.231a1.133 1.133 0 0 1 .108-.41c.1-.195.145-.338.659-.338z" class="cls-2" data-name="Path 427" transform="translate(10.996 12.132)"/>
        <path id="Path_428" d="M15.667 1021.361a3.078 3.078 0 0 0-3.067 3.067H9.653A1.667 1.667 0 0 0 8 1026.081v4.36a1.667 1.667 0 0 0 1.653 1.653H21.68a1.667 1.667 0 0 0 1.653-1.653v-4.36a1.667 1.667 0 0 0-1.653-1.653h-2.947a3.078 3.078 0 0 0-3.067-3.067zm0 1.533a1.522 1.522 0 0 1 1.533 1.533 1.541 1.541 0 0 1-.09.509.767.767 0 0 0 .722 1.024h3.848a.106.106 0 0 1 .12.119v4.361a.105.105 0 0 1-.12.119H9.653a.105.105 0 0 1-.12-.119v-4.36a.106.106 0 0 1 .12-.12H13.5a.767.767 0 0 0 .722-1.024 1.541 1.541 0 0 1-.09-.512 1.522 1.522 0 0 1 1.533-1.53z" class="cls-3" data-name="Path 428" transform="translate(4.429)"/>
        <path id="Path_429" d="M6.769 1029.361a.767.767 0 0 0-.767.767v6.133a.767.767 0 0 0 .767.767H12.9a.767.767 0 0 0 .767-.767v-6.133a.766.766 0 0 0-.766-.766zm.767 1.533h4.6v4.6h-4.6z" class="cls-2" data-name="Path 429" transform="translate(2.131 4.267)"/>
        <path id="Path_430" d="M12 1029.362h12.39v1.533H12z" class="cls-2" data-name="Path 430" transform="translate(7.188 4.267)"/>
        <path id="Path_431" d="M12 1032.9h12.39v-1.533H12z" class="cls-2" data-name="Path 431" transform="translate(7.188 5.334)"/>
        <path id="Path_432" d="M15.2 13v1.533h8.727L25.462 13zm12.392.033l-1.5 1.5h1.5zM6 16.067V17.6h14.86l1.54-1.533zm18.562 0L23.03 17.6h1.854v-1.533zM6 19.133v1.533h11.8l.03-.033 1.5-1.5zm15.495 0l-1.533 1.533h1.659v-1.533zM6 22.2v1.533h10.4l.473-1.42a.767.767 0 0 1 .048-.114zm12.329 0l1.471 1.467V22.2zM6 25.267V26.8h9.38l.509-1.533zm11.506 0L17 26.8h1.267v-1.533z" class="cls-2" data-name="Path 432" transform="translate(2.131 1026.762)"/>
        <path id="Path_433" d="M6 1044.9h7.667v-1.533H6z" class="cls-2" data-name="Path 433" transform="translate(2.132 11.734)"/>
        <path id="Path_434" d="M31.64 1028.711a.767.767 0 0 0-1.084 0l-16.263 16.263a.767.767 0 0 0 0 1.084l4.337 4.337a.767.767 0 0 0 1.084 0l16.263-16.263a.767.767 0 0 0 0-1.084zm-.542 1.626l3.253 3.253-15.18 15.18-3.253-3.253z" class="cls-3" data-name="Path 434" transform="translate(10.132 3.8)"/>
        <path id="Path_435" d="M15.577 1045.549a.767.767 0 0 0-.716.524l-2.168 6.5a.767.767 0 0 0 .97.97l6.5-2.168a.767.767 0 0 0 .3-1.27l-4.336-4.337a.768.768 0 0 0-.55-.219zm.347 2.186l2.581 2.582-3.875 1.291 1.294-3.872zM35.1 1026.99a3.054 3.054 0 0 0-2.168.893l-1.626 1.626a.767.767 0 0 0 0 1.087l4.336 4.336a.767.767 0 0 0 1.084 0l1.626-1.626a3.08 3.08 0 0 0 0-4.339l-1.087-1.084a3.055 3.055 0 0 0-2.168-.893zm0 1.521a1.526 1.526 0 0 1 1.084.455l1.084 1.087a1.513 1.513 0 0 1 0 2.168l-1.084 1.084-3.252-3.255 1.084-1.084a1.526 1.526 0 0 1 1.084-.454z" class="cls-2" data-name="Path 435" transform="translate(9.378 3.002)"/>
    </g>
</svg>
