<svg xmlns="http://www.w3.org/2000/svg" width="66.99" height="39.806" viewBox="0 0 66.99 39.806">
    <defs>
        <style>
            .cls-1{fill:#f05542}.cls-2{fill:#2b4255}
        </style>
    </defs>
    <g id="agreement-business-deal-finance-handshake-partnership-teamwork-1-30022" transform="translate(-.001 -2062.662)">
        <path id="Path_400" d="M48.628 2068.01a1.048 1.048 0 0 0-.464.146l-5.286 3.058a1.051 1.051 0 1 0 1.051 1.818l5.287-3.058a1.051 1.051 0 0 0-.587-1.966zm6.625 11.464a1.049 1.049 0 0 0-.464.147l-5.27 3.045a1.052 1.052 0 1 0 1.051 1.822l5.27-3.049a1.051 1.051 0 0 0-.587-1.966zM17.5 2067.948a1.051 1.051 0 0 0-.5 1.954l4.54 2.775a1.051 1.051 0 1 0 1.1-1.79l-4.54-2.779a1.051 1.051 0 0 0-.6-.16zm-6.612 11.472a1.051 1.051 0 0 0-.5 1.954l4.54 2.774a1.051 1.051 0 1 0 1.1-1.794l-4.54-2.775a1.05 1.05 0 0 0-.6-.16zm25.28-.965a1.051 1.051 0 0 0-.554 1.97l1.272.735a1.051 1.051 0 0 0 1.055-1.818l-1.276-.739a1.044 1.044 0 0 0-.5-.147z" class="cls-1" data-name="Path 400" transform="translate(.461 .247)"/>
        <path id="Path_401" d="M53.187 14.054a1.05 1.05 0 0 0-.468.14l-6.875 3.973a1.053 1.053 0 0 0-.382 1.437L56.04 37.959a1.049 1.049 0 0 0 1.437.382l6.871-3.973a1.053 1.053 0 0 0 .386-1.437l-5.282-9.165-1.822 1.051 4.757 8.258L57.333 36l-9.527-16.536 5.053-2.922 3.719 6.452 1.822-1.051-4.248-7.363a1.049 1.049 0 0 0-.965-.526z" class="cls-2" data-name="Path 401" transform="translate(2.117 2048.609)"/>
        <path id="Path_402" d="M57.217 2078.726a1.324 1.324 0 1 1-.484 1.809 1.321 1.321 0 0 1 .484-1.809z" class="cls-2" data-name="Path 402" transform="translate(2.641 .742)"/>
        <path id="Path_403" d="M8.833 2086.567a1.049 1.049 0 0 1-1.434.385l-6.872-3.974a1.052 1.052 0 0 1-.385-1.436l10.579-18.353a1.049 1.049 0 0 1 1.434-.384l6.872 3.973a1.053 1.053 0 0 1 .385 1.437zm-1.294-1.962l9.53-16.532-5.053-2.922-9.53 16.532z" class="cls-2" data-name="Path 403"/>
        <path id="Path_404" d="M6.9 2078.726a1.324 1.324 0 1 0 .484 1.809 1.321 1.321 0 0 0-.484-1.809z" class="cls-2" data-name="Path 404" transform="translate(.23 .742)"/>
        <path id="Path_405" d="M32.511 2071.152a1.055 1.055 0 0 0-.464.147l-6.382 3.69-4.293 2.488a1.051 1.051 0 0 0-.382 1.437 5.48 5.48 0 0 0 7.388 2.29l5.012-2.9a1.051 1.051 0 1 0-1.055-1.818l-5.012 2.9a3.093 3.093 0 0 1-3.661-.809l3.054-1.769 6.382-3.69a1.051 1.051 0 0 0-.587-1.966z" class="cls-1" data-name="Path 405" transform="translate(.974 .396)"/>
        <path id="Path_406" d="M35.311 2075.627a3.892 3.892 0 0 0-2.877.41l-5.1 2.951a1.051 1.051 0 0 0 1.055 1.818l5.1-2.947a1.641 1.641 0 0 1 2.3.525 1.052 1.052 0 0 0 1.822-1.051 3.628 3.628 0 0 0-2.3-1.706z" class="cls-1" data-name="Path 406" transform="translate(1.252 .601)"/>
        <path id="Path_407" d="M28.532 2069.591a9.864 9.864 0 0 0-9.752 4.852l-2.713 4.712a9.913 9.913 0 0 0 3.591 13.537l3.546 2.048h.012l.681.394 11.345 6.559a3.377 3.377 0 0 0 4.6-1.231 3.118 3.118 0 0 0 .185-1.433 3.347 3.347 0 0 0 4.421-1.26 3.22 3.22 0 0 0 .25-1.937 2.967 2.967 0 0 0 2.824-4.905 3.227 3.227 0 0 0 1.556-1.186 3.387 3.387 0 0 0-1.231-4.6l-10.958-6.341a1.052 1.052 0 1 0-1.051 1.822l10.951 6.329a1.266 1.266 0 0 1-1.26 2.2l-10.881-6.292-1.148-.659a1.051 1.051 0 0 0-1.051 1.818l1.141.665 10.885 6.292 1.141.661a1.266 1.266 0 0 1-1.26 2.2l-1.141-.661-10.881-6.288-1.145-.665a1.051 1.051 0 0 0-1.051 1.818l1.141.665 10.881 6.292a1.267 1.267 0 0 1-1.264 2.2l-2.29-1.326-9.736-5.631-2.29-1.322a1.051 1.051 0 1 0-1.055 1.818l2.29 1.326 5.787 3.345 3.944 2.282a1.266 1.266 0 0 1-1.26 2.2l-11.316-6.543h-.025l-.685-.394-3.559-2.056a7.77 7.77 0 0 1-2.82-10.667l2.713-4.712a7.816 7.816 0 0 1 10.655-2.869l.862.468a1.051 1.051 0 1 0 1.006-1.843l-.862-.472a10.278 10.278 0 0 0-3.731-1.186z" class="cls-1" data-name="Path 407" transform="translate(.688 .32)"/>
        <path id="Path_408" d="M36.759 2069.544a9.758 9.758 0 0 0-3.715 1.248l-1 .583-6.378 3.686-4.293 2.487a1.051 1.051 0 0 0-.382 1.433 5.479 5.479 0 0 0 7.388 2.29l5.012-2.9.037-.021.341-.218a1.641 1.641 0 0 1 2.3.525 1.052 1.052 0 0 0 1.822-1.051 3.787 3.787 0 0 0-5.176-1.3l-.037.025-.361.23-4.991 2.885a3.092 3.092 0 0 1-3.661-.8l3.054-1.773 6.382-3.686.993-.579a7.74 7.74 0 0 1 10.627 2.885l2.717 4.712a1.051 1.051 0 1 0 1.818-1.051l-2.713-4.712a9.917 9.917 0 0 0-9.789-4.9z" class="cls-1" data-name="Path 408" transform="translate(.974 .318)"/>
        <path id="Path_409" d="M36.282 2076.787a1.051 1.051 0 0 0-.866 1.589 1.53 1.53 0 0 1 .111 1.3 1.051 1.051 0 0 0 1.982.7 3.668 3.668 0 0 0-.271-3.05 1.051 1.051 0 0 0-.956-.538z" class="cls-1" data-name="Path 409" transform="translate(1.647 .66)"/>
        <path id="Path_410" d="M36.932 2069.544a9.758 9.758 0 0 0-3.715 1.248l-4.244 2.454a1.051 1.051 0 1 0 1.055 1.818l4.24-2.451a7.74 7.74 0 0 1 10.631 2.881l2.717 4.712a7.786 7.786 0 0 1-1.736 9.908 1.051 1.051 0 1 0 1.342 1.617 9.914 9.914 0 0 0 2.212-12.576l-2.713-4.712a9.917 9.917 0 0 0-9.789-4.9zm-18.332 20.74a1.052 1.052 0 0 0-.776.427 3.373 3.373 0 0 0-.226 3.719 3.176 3.176 0 0 0 3.206 1.412 3.22 3.22 0 0 0 .25 1.937 3.347 3.347 0 0 0 4.421 1.26 3.119 3.119 0 0 0 .185 1.433 3.382 3.382 0 0 0 4.6 1.231l2.688-1.556a1.051 1.051 0 0 0-1.055-1.818l-2.688 1.556a1.266 1.266 0 0 1-1.26-2.2 1.051 1.051 0 1 0-1.055-1.818l-2.29 1.333a1.266 1.266 0 0 1-1.26-2.2 1.053 1.053 0 1 0-1.055-1.822l-1.141.657a1.233 1.233 0 0 1-1.724-.464 1.265 1.265 0 0 1 .086-1.4 1.051 1.051 0 0 0-.9-1.7z" class="cls-1" data-name="Path 410" transform="translate(.801 .318)"/>
    </g>
</svg>
