<svg xmlns="http://www.w3.org/2000/svg" width="36.919" height="47.018" viewBox="0 0 36.919 47.018">
    <defs>
        <style>
            .cls-1,.cls-3{fill:#5ee2a0}.cls-1{fill-rule:evenodd}.cls-2{fill:#2b4255}
        </style>
    </defs>
    <g id="product-bill-invoice-purchase-receipt-document-file-2-30024" transform="translate(-5 -1022.353)">
        <path id="Path_436" d="M8 1032.361v8.391h8.391v-8.391zm1.678 1.678h5.034v5.034H9.678z" class="cls-1" data-name="Path 436" transform="translate(2.034 6.787)"/>
        <path id="Path_437" d="M18.069 1035.718h8.391v1.678h-8.391zm0 3.356h8.391v1.678h-8.391zm0-6.712h8.391v1.678h-8.391zM8 1044.109h26.85v1.678H8z" class="cls-2" data-name="Path 437" transform="translate(2.034 6.787)"/>
        <path id="Path_438" d="M0 10.069h6.713V8.391H0zm10.069 0H26.85V8.391H10.069zM0 6.713h6.713V5.034H0zm10.069 0H26.85V5.034H10.069zM0 1.678h8.391V0H0z" class="cls-2" data-name="Path 438" transform="rotate(180 18.442 532.161)"/>
        <path id="Path_439" d="M8.834 1025.588a.84.84 0 0 0-.826.849v6.313a.84.84 0 1 0 1.678 0v-6.313a.84.84 0 0 0-.852-.849z" class="cls-1" data-name="Path 439" transform="translate(2.039 2.194)"/>
        <path id="Path_440" d="M9.5 1025.369v1.681a.824.824 0 1 1 0 1.649v1.678a2.5 2.5 0 1 0 0-5.008z" class="cls-3" data-name="Path 440" transform="translate(3.052 2.045)"/>
        <path id="Path_441" d="M9.5 1027.369v1.678a.815.815 0 1 1 0 1.629v1.681a2.494 2.494 0 1 0 0-4.989z" class="cls-3" data-name="Path 441" transform="translate(3.052 3.401)"/>
        <path id="Path_442" d="M8.863 1025.361a.841.841 0 1 0 0 1.681h1.678a.841.841 0 1 0 0-1.681zm0 3.356a.84.84 0 1 0 0 1.678h1.678a.84.84 0 1 0 0-1.678zm0 3.333a.84.84 0 1 0 0 1.678h1.678a.84.84 0 1 0 0-1.678zm6.686-6.688a.839.839 0 0 0-.825.852v6.688a.839.839 0 1 0 1.677 0v-6.689a.839.839 0 0 0-.852-.852zm3.357 0a.839.839 0 0 0-.826.852v6.688a.839.839 0 0 0 1.678 0v-6.688a.839.839 0 0 0-.852-.852z" class="cls-1" data-name="Path 442" transform="translate(2.023 2.04)"/>
        <path id="Path_443" d="M19.034 1030.188a.838.838 0 0 0-.851-.826H14.85a.839.839 0 1 0 0 1.678h3.333a.843.843 0 0 0 .851-.852z" class="cls-1" data-name="Path 443" transform="translate(6.103 4.753)"/>
        <path id="Path_444" d="M8.33 1022.354a3.336 3.336 0 0 0-3.33 3.32v13.461h1.678v-13.461a1.625 1.625 0 0 1 1.652-1.642h24.936l6.975 6.958v35.061a1.625 1.625 0 0 1-1.652 1.642H8.33a1.625 1.625 0 0 1-1.652-1.642v-25.238H5v25.238a3.336 3.336 0 0 0 3.33 3.32h30.259a3.336 3.336 0 0 0 3.33-3.32v-35.408a.839.839 0 0 0-.246-.593l-7.473-7.45a.84.84 0 0 0-.593-.242H8.33z" class="cls-2" data-name="Path 444"/>
        <path id="Path_445" d="M22.375 1022.354a.839.839 0 0 0-.826.839v5a3.836 3.836 0 0 0 .4 1.606 3.219 3.219 0 0 0 2.927 1.688h4.979a.839.839 0 0 0 .593-1.432l-7.47-7.454a.839.839 0 0 0-.606-.242zm.852 2.858l4.6 4.592h-2.95c-.969 0-1.22-.354-1.429-.767a2.264 2.264 0 0 1-.223-.849v-2.976z" class="cls-2" data-name="Path 445" transform="translate(11.222)"/>
        <path id="Path_446" d="M18.826 1025.362a.839.839 0 0 0-.826.852v6.688a.839.839 0 0 0 1.678 0v-6.688a.839.839 0 0 0-.852-.852z" class="cls-1" data-name="Path 446" transform="translate(8.816 2.04)"/>
        <path id="Path_447" d="M23.034 1030.188a.838.838 0 0 0-.851-.826H18.85a.839.839 0 1 0 0 1.678h3.333a.843.843 0 0 0 .851-.852z" class="cls-1" data-name="Path 447" transform="translate(8.816 4.753)"/>
    </g>
</svg>
