<svg xmlns="http://www.w3.org/2000/svg" width="41.341" height="26.076" viewBox="0 0 41.341 26.076">
    <defs>
        <style>
            .cls-1{fill:#2c4355}.cls-2{fill:#ffb961}
        </style>
    </defs>
    <g id="icon-active-customer" transform="translate(0 -11.816)">
        <path id="Path_472" d="M49.858 36.844a.326.326 0 0 1-.229-.094l-.693-.694a.323.323 0 0 1 0-.457l.693-.693a.323.323 0 0 1 .457 0l.694.693a.323.323 0 0 1 0 .457l-.694.693a.323.323 0 0 1-.228.095zm-.236-1.017l.236.237.237-.237-.237-.236zm-.67 3.689a.323.323 0 0 1-.229-.551l1.6-1.6a.323.323 0 1 1 .457.457l-1.6 1.6a.322.322 0 0 1-.228.094zm-.2 2.108a.323.323 0 0 1-.229-.551l2.021-2.021a.323.323 0 1 1 .457.457l-2.025 2.021a.319.319 0 0 1-.228.095zm-.006 1.986a.323.323 0 0 1-.229-.551l2.121-2.121a.323.323 0 1 1 .457.457l-2.125 2.121a.322.322 0 0 1-.228.094z" class="cls-1" data-name="Path 472" transform="translate(-17.143 -8.142)"/>
        <path id="Path_473" d="M48.455 39.474a.323.323 0 0 1-.258-.129L46.809 37.5a.32.32 0 0 1-.062-.235l.894-6.846a.323.323 0 1 1 .641.083l-.877 6.715 1.05 1.4 1.05-1.4-.877-6.717a.324.324 0 0 1 .641-.083l.894 6.846a.32.32 0 0 1-.062.235l-1.387 1.849a.325.325 0 0 1-.259.129zm.023-12.5a4.027 4.027 0 0 1-4.022-4.022v-3.7a.323.323 0 0 1 .323-.323h7.4a.323.323 0 0 1 .323.323v3.7a4.026 4.026 0 0 1-4.025 4.021zm-3.376-7.4v3.376a3.376 3.376 0 1 0 6.752 0v-3.375H45.1z" class="cls-1" data-name="Path 473" transform="translate(-15.739 -2.518)"/>
        <path id="Path_474" d="M49.745 25.739a.787.787 0 0 1-.785-.785.323.323 0 1 1 .646 0c0 .154.279.154.279 0a.323.323 0 1 1 .646 0 .787.787 0 0 1-.785.785zm0 1.294a2.488 2.488 0 0 1-1.594-.541.323.323 0 0 1 .413-.5 2.051 2.051 0 0 0 2.361 0 .323.323 0 0 1 .413.5 2.489 2.489 0 0 1-1.593.541z" class="cls-1" data-name="Path 474" transform="translate(-17.007 -4.537)"/>
        <circle id="Ellipse_50" cx=".231" cy=".231" r=".231" class="cls-1" data-name="Ellipse 50" transform="translate(30.887 18.12)"/>
        <circle id="Ellipse_51" cx=".231" cy=".231" r=".231" class="cls-1" data-name="Ellipse 51" transform="translate(34.124 18.12)"/>
        <path id="Path_475" d="M51.669 17.548h-7.4a.786.786 0 0 1-.785-.785v-1.849A1.712 1.712 0 0 1 45.2 13.2a.323.323 0 0 1 .323.323.6.6 0 0 0 .6.6h5.086a1.249 1.249 0 0 1 1.248 1.248v1.386a.788.788 0 0 1-.786.785zm-6.744-3.664a1.067 1.067 0 0 0-.793 1.03v1.849a.14.14 0 0 0 .139.14h7.4a.14.14 0 0 0 .14-.14v-1.387a.6.6 0 0 0-.6-.6h-5.09a1.25 1.25 0 0 1-1.2-.89zm-.664 6.9h-.452a.787.787 0 0 1-.785-.784v-1.388a.786.786 0 0 1 .785-.785h.453a.323.323 0 1 1 0 .646h-.453a.14.14 0 0 0-.14.14V20a.14.14 0 0 0 .14.14h.453a.323.323 0 0 1 0 .646zm7.86 0h-.453a.323.323 0 0 1 0-.646h.453a.14.14 0 0 0 .14-.14v-1.386a.14.14 0 0 0-.14-.14h-.453a.323.323 0 0 1 0-.646h.453a.787.787 0 0 1 .785.785V20a.786.786 0 0 1-.784.784zm.43 17.347a.323.323 0 0 1-.323-.323v-6.684a.323.323 0 1 1 .646 0v6.684a.323.323 0 0 1-.322.323zM46.54 26.289a.323.323 0 0 1-.323-.323v-1.491a.323.323 0 1 1 .646 0v1.491a.323.323 0 0 1-.323.323zm2.774.151a.323.323 0 0 1-.323-.323V24.5a.323.323 0 0 1 .646 0v1.616a.323.323 0 0 1-.323.323z" class="cls-1" data-name="Path 475" transform="translate(-15.233 -.491)"/>
        <path id="Path_476" d="M47.887 35.677a.326.326 0 0 1-.229-.094l-1.607-1.607a.323.323 0 0 1 0-.457l1.1-1.1a.323.323 0 0 1 .457 0l1.602 1.611a.323.323 0 0 1 0 .457l-1.1 1.1a.318.318 0 0 1-.227.095zm-1.15-1.931l1.15 1.15.639-.639-1.15-1.15z" class="cls-1" data-name="Path 476" transform="translate(-16.271 -7.263)"/>
        <path id="Path_477" d="M50.054 31.44a.326.326 0 0 1-.229-.094l-1.1-1.1a.323.323 0 0 1 0-.457l1.644-1.644a.326.326 0 0 1 .457 0l1.1 1.1a.323.323 0 0 1 0 .457l-1.643 1.644a.328.328 0 0 1-.229.094zm-.639-1.42l.639.639 1.187-1.187-.639-.639zm-1.586-7.627H46.9a1.016 1.016 0 1 1 0-2.033h.925a1.016 1.016 0 1 1 0 2.033zm-.929-1.387a.371.371 0 0 0 0 .741h.925a.371.371 0 0 0 0-.741zm4.161 1.387h-.921a1.016 1.016 0 1 1 0-2.033h.924a1.016 1.016 0 1 1 0 2.033zm-.924-1.387a.371.371 0 0 0 0 .741h.924a.371.371 0 0 0 0-.741z" class="cls-1" data-name="Path 477" transform="translate(-16.246 -3.025)"/>
        <path id="Path_478" d="M33.808 21.006h-1.7a.323.323 0 0 1 0-.646h1.7a.323.323 0 1 1 0 .646zm5.788 0h-1.472a.323.323 0 1 1 0-.646H39.6a.323.323 0 1 1 0 .646zm-3.221.838a.323.323 0 0 1-.311-.238c-.079-.209-.283-.16-.326 0a.323.323 0 1 1-.624-.167.826.826 0 0 1 .787-.621.813.813 0 0 1 .754.525c0 .011.028.084.032.095a.322.322 0 0 1-.311.408zm-25.307-.367a.322.322 0 0 1-.259-.13.8.8 0 0 0-1.3 0 .323.323 0 1 1-.517-.386 1.484 1.484 0 0 1 1.119-.592h.048a1.488 1.488 0 0 1 1.168.594.322.322 0 0 1-.258.515zm3.237 0a.322.322 0 0 1-.259-.13.8.8 0 0 0-1.3 0 .323.323 0 0 1-.517-.386 1.462 1.462 0 0 1 1.167-.594h.049a1.485 1.485 0 0 1 1.119.593.322.322 0 0 1-.257.515zm-2.479 10.25a.326.326 0 0 1-.229-.094l-.693-.694a.323.323 0 0 1 0-.457l.693-.693a.323.323 0 0 1 .457 0l.694.693a.323.323 0 0 1 0 .457l-.694.694a.325.325 0 0 1-.228.094zm-.236-1.017l.236.237.237-.237-.237-.236zm-.661 3.671a.323.323 0 0 1-.229-.551l1.522-1.522a.323.323 0 1 1 .457.457l-1.522 1.522a.319.319 0 0 1-.228.094zm-.273 2.1a.323.323 0 0 1-.229-.551l2.039-2.038a.323.323 0 1 1 .457.457l-2.039 2.038a.324.324 0 0 1-.228.094zm.054 2.016a.323.323 0 0 1-.229-.551l2.119-2.124a.323.323 0 1 1 .457.457L10.938 38.4a.322.322 0 0 1-.228.094z" class="cls-1" data-name="Path 478" transform="translate(-3.161 -3.025)"/>
        <path id="Path_479" d="M12.471 41.5a.323.323 0 0 1-.258-.129l-1.387-1.849a.32.32 0 0 1-.062-.235l.894-6.846a.323.323 0 0 1 .641.083l-.877 6.715 1.05 1.4 1.05-1.4-.877-6.715a.324.324 0 0 1 .641-.083l.894 6.846a.32.32 0 0 1-.062.235l-1.388 1.85a.325.325 0 0 1-.259.129zm-.013-15.74a.787.787 0 0 1-.785-.785.323.323 0 0 1 .646 0c0 .154.279.154.279 0a.323.323 0 0 1 .646 0 .787.787 0 0 1-.785.785zm0 1.294a2.486 2.486 0 0 1-1.594-.541.323.323 0 0 1 .413-.5 2.052 2.052 0 0 0 2.361 0 .323.323 0 1 1 .413.5 2.49 2.49 0 0 1-1.593.542z" class="cls-1" data-name="Path 479" transform="translate(-3.805 -4.545)"/>
        <circle id="Ellipse_52" cx=".462" cy=".462" r=".462" class="cls-1" data-name="Ellipse 52" transform="translate(6.571 18.365)"/>
        <circle id="Ellipse_53" cx=".462" cy=".462" r=".462" class="cls-1" data-name="Ellipse 53" transform="translate(9.807 18.365)"/>
        <path id="Path_480" d="M6.975 23.341h-.453a.787.787 0 0 1-.785-.785v-1.388a.786.786 0 0 1 .785-.785h.223a.323.323 0 1 1 0 .646h-.223a.14.14 0 0 0-.14.14v1.387a.14.14 0 0 0 .14.14h.453a.323.323 0 0 1 0 .646zm7.861 0h-.453a.323.323 0 0 1 0-.646h.453a.14.14 0 0 0 .14-.14v-1.387a.14.14 0 0 0-.14-.14h-.278a.323.323 0 1 1 0-.646h.278a.787.787 0 0 1 .785.785v1.387a.787.787 0 0 1-.786.787zM9.3 28.9a.323.323 0 0 1-.323-.323v-1.53a.323.323 0 1 1 .646 0v1.53a.323.323 0 0 1-.323.323zm2.767 0a.323.323 0 0 1-.323-.323v-1.485a.323.323 0 0 1 .646 0v1.484a.323.323 0 0 1-.323.323z" class="cls-1" data-name="Path 480" transform="translate(-2.031 -3.033)"/>
        <path id="Path_481" d="M10.655 35.677a.326.326 0 0 1-.229-.094l-1.607-1.607a.323.323 0 0 1 0-.457l1.1-1.1a.323.323 0 0 1 .457 0l1.606 1.606a.323.323 0 0 1 0 .457l-1.1 1.1a.318.318 0 0 1-.227.095zM9.5 33.747l1.15 1.15.639-.639-1.15-1.15z" class="cls-1" data-name="Path 481" transform="translate(-3.089 -7.263)"/>
        <path id="Path_482" d="M12.33 30.7a.326.326 0 0 1-.229-.094l-1.1-1.1a.323.323 0 0 1 0-.457l1.643-1.644a.332.332 0 0 1 .457 0l1.1 1.1a.323.323 0 0 1 0 .457l-1.644 1.644a.32.32 0 0 1-.227.094zm-.639-1.42l.639.639 1.187-1.187-.639-.639-1.187 1.187zm-.039-2.526h-.925a3.563 3.563 0 0 1-3.559-3.56v-2.763a.325.325 0 0 1 .094-.229l.654-.653a.6.6 0 0 0 .177-.425v-.07a.786.786 0 0 1 .785-.785H13.5a.787.787 0 0 1 .785.785.644.644 0 0 0 .187.492l.636.6a.323.323 0 0 1 .1.234v2.811a3.563 3.563 0 0 1-3.56 3.559zm-3.838-6.189v2.629a2.917 2.917 0 0 0 2.913 2.914h.925a2.916 2.916 0 0 0 2.913-2.914v-2.673l-.535-.506a1.251 1.251 0 0 1-.39-.906c0-.132-.063-.2-.14-.2H8.878a.14.14 0 0 0-.14.14v.07a1.24 1.24 0 0 1-.366.882l-.559.559z" class="cls-1" data-name="Path 482" transform="translate(-2.538 -2.285)"/>
        <path id="Path_483" d="M7.237 18.551a.322.322 0 0 1-.324-.326v-2.734a1.248 1.248 0 0 1-.462-.964V13.6a2.164 2.164 0 0 1 .561-1.446.322.322 0 0 1 .559.161.6.6 0 0 0 .591.5h4.624a1.249 1.249 0 0 1 1.205.924h.182a.787.787 0 0 1 .785.785v3.653a.323.323 0 0 1-.545.234l-.636-.6a1.251 1.251 0 0 1-.39-.906c0-.132-.063-.2-.14-.2H8.625a.14.14 0 0 0-.14.14v.07a1.24 1.24 0 0 1-.366.882l-.654.653a.326.326 0 0 1-.228.101zm-.023-5.525a1.5 1.5 0 0 0-.114.574v.924a.6.6 0 0 0 .3.518.323.323 0 0 1 .161.279v2.127l.1-.1a.612.612 0 0 0 .177-.427v-.07a.786.786 0 0 1 .785-.785h4.624a.787.787 0 0 1 .785.785.644.644 0 0 0 .187.492l.091.086v-2.9a.14.14 0 0 0-.14-.14h-.46a.323.323 0 0 1-.323-.323.6.6 0 0 0-.6-.6H8.161a1.247 1.247 0 0 1-.948-.437z" class="cls-1" data-name="Path 483" transform="translate(-2.284 -.082)"/>
        <path id="Path_484" d="M5.877 16.955h-.462a1.249 1.249 0 0 1-1.248-1.248.323.323 0 1 1 .646 0 .6.6 0 0 0 .6.6h.462a.323.323 0 0 1 0 .646zm35.14 22.2H28.986a.323.323 0 0 1-.323-.323v-7.4a3.374 3.374 0 0 0-1.778-2.974.323.323 0 0 1 .016-.576 4.9 4.9 0 0 1 2.1-.471h.877a.323.323 0 1 1 0 .646H29a4.229 4.229 0 0 0-1.255.19 4.018 4.018 0 0 1 1.568 3.186v7.077h11.382v-6.15a4.306 4.306 0 0 0-4.3-4.3h-.925a.323.323 0 1 1 0-.646h.924a4.952 4.952 0 0 1 4.947 4.947v6.473a.323.323 0 0 1-.323.321zm-28.677 0H.323A.323.323 0 0 1 0 38.832v-6.473a4.952 4.952 0 0 1 4.947-4.947h.877a.323.323 0 0 1 0 .646h-.877a4.306 4.306 0 0 0-4.3 4.3v6.15h11.371v-7.074a4.017 4.017 0 0 1 1.572-3.19 4.233 4.233 0 0 0-1.246-.187h-.924a.323.323 0 0 1 0-.646h.924a4.893 4.893 0 0 1 2.089.468.323.323 0 0 1 .016.577 3.374 3.374 0 0 0-1.785 2.977v7.4a.323.323 0 0 1-.322.324z" class="cls-1" data-name="Path 484" transform="translate(0 -1.263)"/>
        <circle id="Ellipse_54" cx=".462" cy=".462" r=".462" class="cls-2" data-name="Ellipse 54" transform="translate(18.582 17.918)"/>
        <circle id="Ellipse_55" cx=".462" cy=".462" r=".462" class="cls-2" data-name="Ellipse 55" transform="translate(21.818 17.918)"/>
        <path id="Path_485" d="M29.447 20.586a.323.323 0 1 0 .457-.457 1.515 1.515 0 0 0-2.092 0 .323.323 0 1 0 .457.457.851.851 0 0 1 1.178 0zm2.059 0a.853.853 0 0 1 1.178 0 .323.323 0 0 0 .457-.457 1.514 1.514 0 0 0-2.092 0 .323.323 0 0 0 .456.457z" class="cls-2" data-name="Path 485" transform="translate(-9.814 -2.795)"/>
        <path id="Path_486" d="M31.874 26.149h-2.009l-.9-.9v-.77h3.367a.323.323 0 0 0 .323-.323v-7.162a5.088 5.088 0 0 0-5.106-5.178h-.534a5.2 5.2 0 0 0-4.864 3.4c0 .01 0 .021-.005.032a4.255 4.255 0 0 0-.78 2.455.323.323 0 0 0 .323.323.318.318 0 0 0 .149-.04v6.178a.323.323 0 0 0 .323.323h3.377v.786l-.878.879h-2.034a4.027 4.027 0 0 0-4.026 4.019v7.4a.323.323 0 0 0 .323.323h16.649a.323.323 0 0 0 .323-.323v-7.4a4.026 4.026 0 0 0-4.021-4.022zm-2.507.415l-1.089 1.22-.142-.142a.261.261 0 0 0-.015-.022l-.479-.478 1.085-1.216zm-1.391 6.394l-1.816 1.816.182-1.393 1.516-1.515.142 1.077a.189.189 0 0 0-.024.015zm.128.785l.145 1.114-1.05 1.4-.69-.92 1.591-1.593zm-1.081-5.956l.173-.173.236.236-.233.233-.237-.236zm.185-1.129L26.187 25.4v-1.44a3.532 3.532 0 0 0 2.136 0v1.441zm-.545 4.273l.95-.95.141 1.076-1.273 1.273.183-1.4zm.844-1.758l-.707.707.148-1.135.023.023a.322.322 0 0 0 .457 0l.023-.023.055.428zm-1.978-6.259l-1.038-.771a1.532 1.532 0 0 1-.616-1.225v-4.2a3.608 3.608 0 0 1 .824-.1h2.543a1.7 1.7 0 0 0 1.387-.718 1.705 1.705 0 0 0 1.387.718.6.6 0 0 1 .6.6.292.292 0 0 0 .01.048v3.664a1.538 1.538 0 0 1-.605 1.218l-1 .754a2.931 2.931 0 0 1-3.5.014zm-3.417-6.06a3.605 3.605 0 0 1 3.511-2.775.323.323 0 0 0 0-.646 4.267 4.267 0 0 0-1.873.439 4.536 4.536 0 0 1 3.269-1.411h.534a4.449 4.449 0 0 1 4.46 4.532v6.844h-3.044V23.7a3.506 3.506 0 0 0 .445-.282l1-.754a2.185 2.185 0 0 0 .861-1.732v-3.7a.331.331 0 0 0-.019-.1 1.245 1.245 0 0 0-1.238-1.15 1.066 1.066 0 0 1-1.064-1.064.323.323 0 0 0-.646 0 1.066 1.066 0 0 1-1.064 1.064H24.7a4.237 4.237 0 0 0-1.147.171.313.313 0 0 0-.141.036 4.226 4.226 0 0 0-1.3.672zm.376 6.983v-6.454a3.6 3.6 0 0 1 .741-.444v3.98a2.181 2.181 0 0 0 .877 1.743l1.038.771a3.464 3.464 0 0 0 .4.248v.156h-3.057zm3.3 2.1l.974 1.2-.637.637-.974-1.2zm9.462 11.309h-.731v-6.613a.323.323 0 1 0-.646 0v6.612H32.19v-5.673a.323.323 0 0 0-.646 0v5.673H22.48v-5.673a.323.323 0 0 0-.646 0v5.673h-2.583v-7.074a3.38 3.38 0 0 1 3.376-3.376H24.5l1.352 1.663a.324.324 0 0 0 .234.119h.014a.327.327 0 0 0 .229-.094l-.84 6.427a.32.32 0 0 0 .062.235l1.387 1.849a.323.323 0 0 0 .517 0l1.387-1.849a.32.32 0 0 0 .062-.235l-.838-6.419a.322.322 0 0 0 .223.091h.011a.323.323 0 0 0 .232-.108l1.495-1.674h1.847a3.38 3.38 0 0 1 3.376 3.376v7.075z" class="cls-2" data-name="Path 486" transform="translate(-6.587)"/>
        <path id="Path_487" d="M30.676 24.349a.782.782 0 0 0 1.11 0 .323.323 0 0 0-.457-.457.138.138 0 0 1-.2 0 .323.323 0 1 0-.457.456zm1.711.483h-2.312a.323.323 0 0 0-.323.323 1.479 1.479 0 0 0 2.958 0 .324.324 0 0 0-.323-.323zm-1.156 1.156a.834.834 0 0 1-.768-.51H32a.834.834 0 0 1-.769.51z" class="cls-2" data-name="Path 487" transform="translate(-10.534 -4.239)"/>
    </g>
</svg>
