<svg xmlns="http://www.w3.org/2000/svg" width="42.924" height="46.5" viewBox="0 0 42.924 46.5">
    <defs>
        <style>
            .cls-1{fill:#2b4255}.cls-2{fill:#a3a0fb}
        </style>
    </defs>
    <g id="binoculars-find-search-product-locate-nature-adventure-2-29978" transform="translate(-9.846 -2519.037)">
        <path id="Path_417" d="M37.8 2519.037a.894.894 0 0 0-.894.894v3.577a.894.894 0 0 0 1.789 0v-2.682h3.577v2.683a.894.894 0 0 0 1.789 0v-3.576a.894.894 0 0 0-.894-.895zm-14.308 0a.894.894 0 0 0-.894.894v3.577a.894.894 0 0 0 1.789 0v-2.682h3.577v2.683a.894.894 0 0 0 1.789 0v-3.576a.894.894 0 0 0-.894-.895zm-5.365 10.734a.894.894 0 0 0-.894.894v8.939a.894.894 0 0 0 1.789 0v-8.045h28.612v8.045a.894.894 0 0 0 1.789 0v-8.939a.894.894 0 0 0-.894-.894z" class="cls-1" data-name="Path 417" transform="translate(-2.019)"/>
        <path id="Path_418" d="M32.154 2555.96a.894.894 0 1 0 0 1.788h10.018a.894.894 0 0 0 0-1.789z" class="cls-2" data-name="Path 418" transform="translate(-5.855 -10.096)"/>
        <path id="Path_419" d="M11.635 2573.191a1.8 1.8 0 0 0-1.788 1.789v3.577a1.8 1.8 0 0 0 1.788 1.788h16.1a1.8 1.8 0 0 0 1.788-1.788v-3.577a1.8 1.8 0 0 0-1.788-1.789zm0 1.789h16.1v3.577h-16.1zm23.25-1.789a1.8 1.8 0 0 0-1.788 1.789v3.577a1.8 1.8 0 0 0 1.788 1.788h16.1a1.8 1.8 0 0 0 1.788-1.788v-3.577a1.8 1.8 0 0 0-1.788-1.789zm0 1.789h16.1v3.577h-16.1z" class="cls-1" data-name="Path 419" transform="translate(0 -14.808)"/>
        <path id="Path_420" d="M14.1 2546.119a.9.9 0 0 0-.894.852l-.894 19.673a.894.894 0 0 0 .894.933h14.303a.894.894 0 0 0 .894-.933l-.447-9.836-.224-4.918-.056-1.229a.9.9 0 1 0-1.788.081l.056 1.229.224 4.918.405 8.9H14.138l.814-17.881h8.981a.894.894 0 1 0 0-1.789H14.1z" class="cls-1" data-name="Path 420" transform="translate(-.673 -7.405)"/>
        <path id="Path_421" d="M32.442 2538.729a5.365 5.365 0 0 0 0 10.731H39.6a5.365 5.365 0 0 0 0-10.731zm0 1.789H39.6a3.577 3.577 0 1 1 0 7.154h-7.158a3.577 3.577 0 1 1 0-7.154z" class="cls-1" data-name="Path 421" transform="translate(-4.712 -5.385)"/>
        <path id="Path_422" d="M33.788 2543.653a1.788 1.788 0 1 0 1.788 1.788 1.8 1.8 0 0 0-1.788-1.788zm7.154 0a1.788 1.788 0 1 0 1.788 1.788 1.8 1.8 0 0 0-1.788-1.788z" class="cls-2" data-name="Path 422" transform="translate(-6.058 -6.731)"/>
        <path id="Path_423" d="M23.048 2523.96a.893.893 0 0 0-.894.894v7.154a.894.894 0 0 0 .894.894h8.942a.894.894 0 0 0 .894-.894v-7.154a.894.894 0 0 0-.894-.895zm.894 1.788H31.1v5.365h-7.158zm13.413-1.788a.893.893 0 0 0-.894.894v7.154a.894.894 0 0 0 .894.894H46.3a.894.894 0 0 0 .894-.894v-7.154a.894.894 0 0 0-.894-.895zm.894 1.788H45.4v5.365h-7.15zm4.38 14.311a.9.9 0 0 0 .091 1.789h8.98l.171 3.727a.894.894 0 1 0 1.785-.084l-.206-4.579a.894.894 0 0 0-.894-.852H42.63zm-2.822 3.675a.894.894 0 0 0-.831.866l-.056 1.23-.224 4.918-.447 9.836a.894.894 0 0 0 .894.933h14.309a.894.894 0 0 0 .894-.933l-.51-11.188a.894.894 0 1 0-1.785.081l.465 10.252H40.08l.405-8.9.224-4.918.056-1.229a.894.894 0 0 0-.957-.947z" class="cls-1" data-name="Path 423" transform="translate(-3.365 -1.346)"/>
    </g>
</svg>
