<svg xmlns="http://www.w3.org/2000/svg" width="35.249" height="47.001" viewBox="0 0 35.249 47.001">
    <defs>
        <style>
            .cls-1,.cls-2{fill:#2b4255}.cls-2,.cls-3{fill-rule:evenodd}.cls-3{fill:#f05542}
        </style>
    </defs>
    <g id="product-related-query-information-email-response-marketing-2-29994" transform="translate(-5 -1022.361)">
        <path id="Path_462" d="M36.24 1031.437a.844.844 0 0 0-.528 1.5l2.839 2.328c.008.749.017 1.5.01 2.233v18.302a.809.809 0 0 1-.836.82H11.7a.844.844 0 0 0-.544.2l-4.465 3.744v-5.465-17.579l.01-2.18 2.869-1.836a.844.844 0 1 0-.908-1.423l-3.262 2.077a.844.844 0 0 0-.387.708l-.013 2.64v24.854a.844.844 0 0 0 1.387.646l5.613-4.712h25.725a2.527 2.527 0 0 0 2.521-2.5v-18.271c.009-.892 0-1.777-.013-2.652a.844.844 0 0 0-.308-.643l-3.144-2.58a.842.842 0 0 0-.541-.2z" class="cls-1" data-name="Path 462" transform="translate(0 6.159)"/>
        <path id="Path_463" d="M9.744 1022.361A2.762 2.762 0 0 0 7 1025.115v3.613a.825.825 0 0 0 1.649 0v-3.613a1.08 1.08 0 0 1 1.095-1.1h18.864l5.278 5.3v14.228a.825.825 0 0 0 1.649 0v-14.573a.824.824 0 0 0-.239-.583l-5.763-5.783a.825.825 0 0 0-.584-.243H9.744zm-1.931 10.307a.824.824 0 0 0-.813.832v10.032a.825.825 0 0 0 1.649 0V1033.5a.824.824 0 0 0-.836-.836z" class="cls-1" data-name="Path 463" transform="translate(1.357)"/>
        <path id="Path_464" d="M19.826 1022.363a.84.84 0 0 0-.826.853v4.491a3.788 3.788 0 0 0 .315 1.442 2.727 2.727 0 0 0 2.478 1.606H25.7a.841.841 0 1 0 0-1.682h-3.907c-.66 0-.781-.241-.941-.6a2.289 2.289 0 0 1-.17-.764v-4.491a.84.84 0 0 0-.856-.852z" class="cls-1" data-name="Path 464" transform="translate(9.5 .001)"/>
        <path id="Path_465" d="M5.833 1033.561a.839.839 0 0 0-.439 1.551l16.6 10.809a.839.839 0 0 0 .918 0l16.6-10.809a.84.84 0 1 0-.918-1.406l-16.136 10.51-16.15-10.516a.837.837 0 0 0-.475-.144z" class="cls-2" data-name="Path 465" transform="translate(0 7.599)"/>
        <path id="Path_466" d="M15.016 1025.361v11.75h1.646v-11.75zM15 1038.79v1.679h1.679v-1.679z" class="cls-3" data-name="Path 466" transform="translate(6.786 2.036)"/>
    </g>
</svg>
