<svg xmlns="http://www.w3.org/2000/svg" width="46.488" height="46.5" viewBox="0 0 46.488 46.5">
    <defs>
        <style>
            .cls-1,.cls-3{fill:#a3a0fb}.cls-1{fill-rule:evenodd}.cls-2{fill:#2b4255}
        </style>
    </defs>
    <g id="shop-cart-shopping-sale-offer-discount-ecommerce-finance-16-30004" transform="translate(-4.59 -2337.001)">
        <path id="Path_411" d="M34.159 2360.686a.83.83 0 1 0 0 1.661h17.932a.83.83 0 1 0 0-1.661zm-3.166-9.939a.83.83 0 1 0 0 1.661h24.576a.83.83 0 1 0 0-1.661z" class="cls-1" data-name="Path 411" transform="translate(-6.993 -3.759)"/>
        <path id="Path_412" d="M5.42 2337.014a.83.83 0 1 0 0 1.661h5.132l8.226 34.249a.831.831 0 0 0 .808.636H40.3a.83.83 0 1 0 0-1.661H20.241l-8.23-34.248a.83.83 0 0 0-.808-.636H5.42z" class="cls-2" data-name="Path 412" transform="translate(0 -.004)"/>
        <path id="Path_413" d="M24.1 2385a5.813 5.813 0 1 0 5.813 5.813A5.823 5.823 0 0 0 24.1 2385zm0 1.661a4.152 4.152 0 1 1-4.149 4.152 4.14 4.14 0 0 1 4.149-4.153zM44.031 2385a5.813 5.813 0 1 0 5.813 5.813 5.823 5.823 0 0 0-5.813-5.813zm0 1.661a4.152 4.152 0 1 1-4.149 4.152 4.14 4.14 0 0 1 4.149-4.153z" class="cls-2" data-name="Path 413" transform="translate(-3.747 -13.124)"/>
        <path id="Path_414" d="M32.964 2357.537a.832.832 0 0 0 .084 1.661H54.3a.831.831 0 0 0 0-1.661H33.049a.81.81 0 0 0-.084 0z" class="cls-1" data-name="Path 414" transform="translate(-7.543 -5.615)"/>
        <path id="Path_415" d="M13.337 4.576a.831.831 0 0 0-.766 1.035l1.171 4.869a.831.831 0 0 0 .775.636l1.651.065h8.852V9.519h-8.8l-1.009-.039-1.024-4.259a.831.831 0 0 0-.85-.645zm13.345 4.943v1.661H30V9.519zm6.643 0v1.661H51.28l-5.933 18.286H20.182a.831.831 0 0 0-.266.039l-.759.253a.831.831 0 0 0-.545.983l2.342 9.751a.83.83 0 0 0 .808.636h20.714a.83.83 0 1 0 0-1.661H22.417l-2-8.343h25.534a.83.83 0 0 0 .788-.574l6.475-19.943a.831.831 0 0 0-.788-1.087z" class="cls-2" data-name="Path 415" transform="translate(-2.176 2332.426)"/>
        <path id="Path_416" d="M25.35 2389.576a2.49 2.49 0 1 0 2.491 2.491 2.5 2.5 0 0 0-2.491-2.491zm0 1.661a.829.829 0 1 1-.83.83.818.818 0 0 1 .83-.83zm19.93-1.661a2.49 2.49 0 1 0 2.491 2.491 2.5 2.5 0 0 0-2.491-2.491zm0 1.661a.829.829 0 1 1-.827.83.818.818 0 0 1 .827-.83z" class="cls-3" data-name="Path 416" transform="translate(-4.995 -14.376)"/>
    </g>
</svg>
