<svg xmlns="http://www.w3.org/2000/svg" width="16" height="16" viewBox="0 0 16 16">
    <defs>
        <style>
            .cls-1{fill:none}.cls-2{clip-path:url(#clip-path)}.cls-3{fill:#a5a4bf}
        </style>
        <clipPath id="clip-path">
            <path d="M0 0h16v16H0z" class="cls-1"/>
        </clipPath>
    </defs>
    <g id="icon_setting" class="cls-2">
        <path id="Path_108" d="M13.3 5.2l1.1-2.1L13 1.7l-2.1 1.1a3.582 3.582 0 0 0-1.1-.4L9 0H7l-.8 2.3a4.179 4.179 0 0 0-1 .4L3.1 1.6 1.6 3.1l1.1 2.1a4.179 4.179 0 0 0-.4 1L0 7v2l2.3.8c.1.4.3.7.4 1.1L1.6 13 3 14.4l2.1-1.1a3.582 3.582 0 0 0 1.1.4L7 16h2l.8-2.3c.4-.1.7-.3 1.1-.4l2.1 1.1 1.4-1.4-1.1-2.1a3.582 3.582 0 0 0 .4-1.1L16 9V7l-2.3-.8a4.179 4.179 0 0 0-.4-1zM8 11a2.946 2.946 0 0 1-3-3 2.946 2.946 0 0 1 3-3 2.946 2.946 0 0 1 3 3 2.946 2.946 0 0 1-3 3z" class="cls-3" data-name="Path 108"/>
    </g>
</svg>
