<svg xmlns="http://www.w3.org/2000/svg" width="31.077" height="30.662" viewBox="0 0 31.077 30.662">
    <defs>
        <style>
            .cls-1,.cls-3{fill:#5ee2a0}.cls-1{fill-rule:evenodd}.cls-2{fill:#2b4255}
        </style>
    </defs>
    <g id="customer-survey-experience-questionarie-form-satisfaction-analytics-19-29979">
        <path id="Path_424" d="M26.436 1030.08l-10.807 10.807.723.723 10.807-10.81z" class="cls-1" data-name="Path 424" transform="translate(.76 -1021.169)"/>
        <path id="Path_425" d="M3.539 4a1.563 1.563 0 0 0-1.533 1.575v24.447A1.561 1.561 0 0 0 3.539 31.6h19.413a1.561 1.561 0 0 0 1.533-1.573V17.862l-1.022 1.024v11.136a.52.52 0 0 1-.511.551H3.539a.52.52 0 0 1-.511-.551V5.575a.522.522 0 0 1 .511-.553h5.1A.511.511 0 1 0 8.643 4zM17.79 4a.512.512 0 0 0 .052 1.022h5.11a.522.522 0 0 1 .511.553v3.22l1.022-1.022v-2.2A1.563 1.563 0 0 0 22.952 4H17.79zm6.7 5.218l-1.027 1.022v.18a.511.511 0 1 0 1.022 0zm-.519 6.721a.511.511 0 0 0-.5.519v.98l1.02-1.02a.511.511 0 0 0-.517-.479z" class="cls-2" data-name="Path 425" transform="translate(-2.006 -.933)"/>
        <path id="Path_426" d="M5.685 6a1.684 1.684 0 0 0-1.679 1.673V24.4h1.022V7.673a.642.642 0 0 1 .657-.651H8.6V6zM17.8 6v1.022h2.92a.642.642 0 0 1 .657.651v3.122L22.4 9.773v-2.1A1.684 1.684 0 0 0 20.718 6zm4.6 5.218l-1.025 1.022v.267H22.4zm-1.022 6.953v1.268l1.022-1.023v-.246zm1.022 1.693l-1.022 1.022v3.543l-3 3.04H5.685a.64.64 0 0 1-.657-.649v-1.4H4.006v1.4a1.682 1.682 0 0 0 1.679 1.671h12.9a.511.511 0 0 0 .363-.152L22.249 25a.511.511 0 0 0 .148-.359z" class="cls-2" data-name="Path 426" transform="translate(-1.962 -.889)"/>
        <path id="Path_427" d="M19.533 1044.109a1.517 1.517 0 0 0-1.349.786 1.738 1.738 0 0 0-.184.734v2.054a.511.511 0 0 0 .872.361l3.066-3.064a.511.511 0 0 0-.361-.872zm0 1.022h.81l-1.321 1.319v-.82a.755.755 0 0 1 .072-.273c.066-.13.1-.226.439-.226z" class="cls-2" data-name="Path 427" transform="translate(-.01 -1020.86)"/>
        <path id="Path_428" d="M13.11 1021.361a2.052 2.052 0 0 0-2.044 2.044H9.1a1.111 1.111 0 0 0-1.1 1.1v2.906a1.111 1.111 0 0 0 1.1 1.1h8.017a1.111 1.111 0 0 0 1.1-1.1v-2.906a1.111 1.111 0 0 0-1.1-1.1h-1.963a2.052 2.052 0 0 0-2.044-2.044zm0 1.022a1.014 1.014 0 0 1 1.022 1.022 1.027 1.027 0 0 1-.06.339.511.511 0 0 0 .481.683h2.565a.07.07 0 0 1 .08.08v2.907a.07.07 0 0 1-.08.08H9.1a.07.07 0 0 1-.08-.08v-2.906a.07.07 0 0 1 .08-.08h2.565a.511.511 0 0 0 .481-.682 1.027 1.027 0 0 1-.06-.341 1.014 1.014 0 0 1 1.022-1.02z" class="cls-3" data-name="Path 428" transform="translate(-1.052 -1021.361)"/>
        <path id="Path_429" d="M6.513 1029.361a.511.511 0 0 0-.511.511v4.088a.511.511 0 0 0 .511.511H10.6a.511.511 0 0 0 .511-.511v-4.088a.511.511 0 0 0-.511-.511zm.511 1.022h3.066v3.066H7.024z" class="cls-2" data-name="Path 429" transform="translate(-1.918 -1021.185)"/>
        <path id="Path_430" d="M12 1029.362h8.259v1.022H12z" class="cls-2" data-name="Path 430" transform="translate(-.548 -1021.185)"/>
        <path id="Path_431" d="M12 1032.384h8.259v-1.022H12z" class="cls-2" data-name="Path 431" transform="translate(-.548 -1021.141)"/>
        <path id="Path_432" d="M12.134 13v1.022h5.817L18.973 13zm8.26.022l-1 1h1zM6 15.044v1.022h9.905l1.022-1.022zm12.372 0l-1.022 1.022h1.236v-1.022zM6 17.088v1.022h7.863l.02-.022 1-1zm10.328 0l-1.02 1.022h1.106v-1.022zM6 19.132v1.022h6.933l.315-.946a.511.511 0 0 1 .032-.076zm8.218 0l.978.978v-.978zM6 21.176V22.2h6.252l.339-1.022zm7.669 0l-.337 1.024h.844v-1.024z" class="cls-2" data-name="Path 432" transform="translate(-1.918 -.735)"/>
        <path id="Path_433" d="M6 1044.384h5.11v-1.022H6z" class="cls-2" data-name="Path 433" transform="translate(-1.918 -1020.876)"/>
        <path id="Path_434" d="M25.78 1028.636a.511.511 0 0 0-.723 0l-10.841 10.841a.511.511 0 0 0 0 .723l2.891 2.891a.511.511 0 0 0 .723 0l10.841-10.84a.511.511 0 0 0 0-.723zm-.361 1.084l2.168 2.168-10.118 10.118-2.168-2.168z" class="cls-3" data-name="Path 434" transform="translate(.726 -1021.204)"/>
        <path id="Path_435" d="M14.6 1039.361a.512.512 0 0 0-.477.349l-1.445 4.336a.511.511 0 0 0 .647.647l4.336-1.445a.511.511 0 0 0 .2-.846l-2.89-2.891a.512.512 0 0 0-.371-.15zm.232 1.457l1.721 1.721-2.583.86.862-2.581zm12.784-13.827a2.036 2.036 0 0 0-1.445.595l-1.084 1.084a.511.511 0 0 0 0 .725l2.89 2.891a.511.511 0 0 0 .723 0l1.084-1.084a2.053 2.053 0 0 0 0-2.892l-.725-.723a2.037 2.037 0 0 0-1.445-.595zm0 1.014a1.017 1.017 0 0 1 .723.3l.723.725a1.008 1.008 0 0 1 0 1.445l-.723.723-2.168-2.17.723-.723a1.017 1.017 0 0 1 .724-.305z" class="cls-2" data-name="Path 435" transform="translate(.695 -1021.237)"/>
    </g>
</svg>
